<?xml version="1.0" encoding="utf-8" standalone="no"?>
<!DOCTYPE svg PUBLIC "-//W3C//DTD SVG 1.1//EN"
  "http://www.w3.org/Graphics/SVG/1.1/DTD/svg11.dtd">
<svg xmlns:xlink="http://www.w3.org/1999/xlink" width="612.866562pt" height="383.478125pt" viewBox="0 0 612.866562 383.478125" xmlns="http://www.w3.org/2000/svg" version="1.1">
 <metadata>
  <rdf:RDF xmlns:dc="http://purl.org/dc/elements/1.1/" xmlns:cc="http://creativecommons.org/ns#" xmlns:rdf="http://www.w3.org/1999/02/22-rdf-syntax-ns#">
   <cc:Work>
    <dc:type rdf:resource="http://purl.org/dc/dcmitype/StillImage"/>
    <dc:date>2026-07-18T02:39:49.239997</dc:date>
    <dc:format>image/svg+xml</dc:format>
    <dc:creator>
     <cc:Agent>
      <dc:title>Matplotlib v3.10.8, https://matplotlib.org/</dc:title>
     </cc:Agent>
    </dc:creator>
   </cc:Work>
  </rdf:RDF>
 </metadata>
 <defs>
  <style type="text/css">*{stroke-linejoin: round; stroke-linecap: butt}</style>
 </defs>
 <g id="figure_1">
  <g id="patch_1">
   <path d="M 0 383.478125 
L 612.866562 383.478125 
L 612.866562 0 
L 0 0 
z
" style="fill: #ffffff"/>
  </g>
  <g id="axes_1">
   <g id="patch_2">
    <path d="M 47.666563 339.84 
L 605.666563 339.84 
L 605.666563 7.2 
L 47.666563 7.2 
z
" style="fill: #ffffff"/>
   </g>
   <g id="matplotlib.axis_1">
    <g id="xtick_1">
     <g id="line2d_1">
      <path d="M 49.149704 339.84 
L 49.149704 7.2 
" clip-path="url(#p4d554a4d19)" style="fill: none; stroke: #cccccc; stroke-width: 0.8; stroke-linecap: round"/>
     </g>
     <g id="text_1">
      <!-- $\mathdefault{10^{-1}}$ -->
      <g style="fill: #262626" transform="translate(39.249704 357.1525) scale(0.1 -0.1)">
       <defs>
        <path id="ArialMT-31" d="M 2384 0 
L 1822 0 
L 1822 3584 
Q 1619 3391 1289 3197 
Q 959 3003 697 2906 
L 697 3450 
Q 1169 3672 1522 3987 
Q 1875 4303 2022 4600 
L 2384 4600 
L 2384 0 
z
" transform="scale(0.015625)"/>
        <path id="ArialMT-30" d="M 266 2259 
Q 266 3072 433 3567 
Q 600 4063 929 4331 
Q 1259 4600 1759 4600 
Q 2128 4600 2406 4451 
Q 2684 4303 2865 4023 
Q 3047 3744 3150 3342 
Q 3253 2941 3253 2259 
Q 3253 1453 3087 958 
Q 2922 463 2592 192 
Q 2263 -78 1759 -78 
Q 1097 -78 719 397 
Q 266 969 266 2259 
z
M 844 2259 
Q 844 1131 1108 757 
Q 1372 384 1759 384 
Q 2147 384 2411 759 
Q 2675 1134 2675 2259 
Q 2675 3391 2411 3762 
Q 2147 4134 1753 4134 
Q 1366 4134 1134 3806 
Q 844 3388 844 2259 
z
" transform="scale(0.015625)"/>
        <path id="ArialMT-2212" d="M 3381 1997 
L 356 1997 
L 356 2522 
L 3381 2522 
L 3381 1997 
z
" transform="scale(0.015625)"/>
       </defs>
       <use xlink:href="#ArialMT-31" transform="translate(0 0.99375)"/>
       <use xlink:href="#ArialMT-30" transform="translate(55.615234 0.99375)"/>
       <use xlink:href="#ArialMT-2212" transform="translate(112.972813 70.6875) scale(0.7)"/>
       <use xlink:href="#ArialMT-31" transform="translate(153.851719 70.6875) scale(0.7)"/>
      </g>
     </g>
    </g>
    <g id="xtick_2">
     <g id="line2d_2">
      <path d="M 149.427559 339.84 
L 149.427559 7.2 
" clip-path="url(#p4d554a4d19)" style="fill: none; stroke: #cccccc; stroke-width: 0.8; stroke-linecap: round"/>
     </g>
     <g id="text_2">
      <!-- $\mathdefault{10^{0}}$ -->
      <g style="fill: #262626" transform="translate(141.577559 357.1525) scale(0.1 -0.1)">
       <use xlink:href="#ArialMT-31" transform="translate(0 0.99375)"/>
       <use xlink:href="#ArialMT-30" transform="translate(55.615234 0.99375)"/>
       <use xlink:href="#ArialMT-30" transform="translate(112.972813 70.6875) scale(0.7)"/>
      </g>
     </g>
    </g>
    <g id="xtick_3">
     <g id="line2d_3">
      <path d="M 249.705414 339.84 
L 249.705414 7.2 
" clip-path="url(#p4d554a4d19)" style="fill: none; stroke: #cccccc; stroke-width: 0.8; stroke-linecap: round"/>
     </g>
     <g id="text_3">
      <!-- $\mathdefault{10^{1}}$ -->
      <g style="fill: #262626" transform="translate(241.855414 357.1525) scale(0.1 -0.1)">
       <use xlink:href="#ArialMT-31" transform="translate(0 0.99375)"/>
       <use xlink:href="#ArialMT-30" transform="translate(55.615234 0.99375)"/>
       <use xlink:href="#ArialMT-31" transform="translate(112.972813 70.6875) scale(0.7)"/>
      </g>
     </g>
    </g>
    <g id="xtick_4">
     <g id="line2d_4">
      <path d="M 349.983269 339.84 
L 349.983269 7.2 
" clip-path="url(#p4d554a4d19)" style="fill: none; stroke: #cccccc; stroke-width: 0.8; stroke-linecap: round"/>
     </g>
     <g id="text_4">
      <!-- $\mathdefault{10^{2}}$ -->
      <g style="fill: #262626" transform="translate(342.133269 357.1525) scale(0.1 -0.1)">
       <defs>
        <path id="ArialMT-32" d="M 3222 541 
L 3222 0 
L 194 0 
Q 188 203 259 391 
Q 375 700 629 1000 
Q 884 1300 1366 1694 
Q 2113 2306 2375 2664 
Q 2638 3022 2638 3341 
Q 2638 3675 2398 3904 
Q 2159 4134 1775 4134 
Q 1369 4134 1125 3890 
Q 881 3647 878 3216 
L 300 3275 
Q 359 3922 746 4261 
Q 1134 4600 1788 4600 
Q 2447 4600 2831 4234 
Q 3216 3869 3216 3328 
Q 3216 3053 3103 2787 
Q 2991 2522 2730 2228 
Q 2469 1934 1863 1422 
Q 1356 997 1212 845 
Q 1069 694 975 541 
L 3222 541 
z
" transform="scale(0.015625)"/>
       </defs>
       <use xlink:href="#ArialMT-31" transform="translate(0 0.99375)"/>
       <use xlink:href="#ArialMT-30" transform="translate(55.615234 0.99375)"/>
       <use xlink:href="#ArialMT-32" transform="translate(112.972813 70.6875) scale(0.7)"/>
      </g>
     </g>
    </g>
    <g id="xtick_5">
     <g id="line2d_5">
      <path d="M 450.261124 339.84 
L 450.261124 7.2 
" clip-path="url(#p4d554a4d19)" style="fill: none; stroke: #cccccc; stroke-width: 0.8; stroke-linecap: round"/>
     </g>
     <g id="text_5">
      <!-- $\mathdefault{10^{3}}$ -->
      <g style="fill: #262626" transform="translate(442.411124 357.1525) scale(0.1 -0.1)">
       <defs>
        <path id="ArialMT-33" d="M 269 1209 
L 831 1284 
Q 928 806 1161 595 
Q 1394 384 1728 384 
Q 2125 384 2398 659 
Q 2672 934 2672 1341 
Q 2672 1728 2419 1979 
Q 2166 2231 1775 2231 
Q 1616 2231 1378 2169 
L 1441 2663 
Q 1497 2656 1531 2656 
Q 1891 2656 2178 2843 
Q 2466 3031 2466 3422 
Q 2466 3731 2256 3934 
Q 2047 4138 1716 4138 
Q 1388 4138 1169 3931 
Q 950 3725 888 3313 
L 325 3413 
Q 428 3978 793 4289 
Q 1159 4600 1703 4600 
Q 2078 4600 2393 4439 
Q 2709 4278 2876 4000 
Q 3044 3722 3044 3409 
Q 3044 3113 2884 2869 
Q 2725 2625 2413 2481 
Q 2819 2388 3044 2092 
Q 3269 1797 3269 1353 
Q 3269 753 2831 336 
Q 2394 -81 1725 -81 
Q 1122 -81 723 278 
Q 325 638 269 1209 
z
" transform="scale(0.015625)"/>
       </defs>
       <use xlink:href="#ArialMT-31" transform="translate(0 0.99375)"/>
       <use xlink:href="#ArialMT-30" transform="translate(55.615234 0.99375)"/>
       <use xlink:href="#ArialMT-33" transform="translate(112.972813 70.6875) scale(0.7)"/>
      </g>
     </g>
    </g>
    <g id="xtick_6">
     <g id="line2d_6">
      <path d="M 550.538979 339.84 
L 550.538979 7.2 
" clip-path="url(#p4d554a4d19)" style="fill: none; stroke: #cccccc; stroke-width: 0.8; stroke-linecap: round"/>
     </g>
     <g id="text_6">
      <!-- $\mathdefault{10^{4}}$ -->
      <g style="fill: #262626" transform="translate(542.688979 357.0525) scale(0.1 -0.1)">
       <defs>
        <path id="ArialMT-34" d="M 2069 0 
L 2069 1097 
L 81 1097 
L 81 1613 
L 2172 4581 
L 2631 4581 
L 2631 1613 
L 3250 1613 
L 3250 1097 
L 2631 1097 
L 2631 0 
L 2069 0 
z
M 2069 1613 
L 2069 3678 
L 634 1613 
L 2069 1613 
z
" transform="scale(0.015625)"/>
       </defs>
       <use xlink:href="#ArialMT-31" transform="translate(0 0.201563)"/>
       <use xlink:href="#ArialMT-30" transform="translate(55.615234 0.201563)"/>
       <use xlink:href="#ArialMT-34" transform="translate(112.972813 69.895313) scale(0.7)"/>
      </g>
     </g>
    </g>
    <g id="xtick_7"/>
    <g id="xtick_8"/>
    <g id="xtick_9"/>
    <g id="xtick_10"/>
    <g id="xtick_11"/>
    <g id="xtick_12"/>
    <g id="xtick_13"/>
    <g id="xtick_14"/>
    <g id="xtick_15"/>
    <g id="xtick_16"/>
    <g id="xtick_17"/>
    <g id="xtick_18"/>
    <g id="xtick_19"/>
    <g id="xtick_20"/>
    <g id="xtick_21"/>
    <g id="xtick_22"/>
    <g id="xtick_23"/>
    <g id="xtick_24"/>
    <g id="xtick_25"/>
    <g id="xtick_26"/>
    <g id="xtick_27"/>
    <g id="xtick_28"/>
    <g id="xtick_29"/>
    <g id="xtick_30"/>
    <g id="xtick_31"/>
    <g id="xtick_32"/>
    <g id="xtick_33"/>
    <g id="xtick_34"/>
    <g id="xtick_35"/>
    <g id="xtick_36"/>
    <g id="xtick_37"/>
    <g id="xtick_38"/>
    <g id="xtick_39"/>
    <g id="xtick_40"/>
    <g id="xtick_41"/>
    <g id="xtick_42"/>
    <g id="xtick_43"/>
    <g id="xtick_44"/>
    <g id="xtick_45"/>
    <g id="xtick_46"/>
    <g id="xtick_47"/>
    <g id="xtick_48"/>
    <g id="text_7">
     <!-- Localization Error (km) [Log Scale] -->
     <g style="fill: #262626" transform="translate(210.76625 373.331563) scale(0.14 -0.14)">
      <defs>
       <path id="Arial-BoldMT-4c" d="M 491 0 
L 491 4544 
L 1416 4544 
L 1416 772 
L 3716 772 
L 3716 0 
L 491 0 
z
" transform="scale(0.015625)"/>
       <path id="Arial-BoldMT-6f" d="M 256 1706 
Q 256 2144 472 2553 
Q 688 2963 1083 3178 
Q 1478 3394 1966 3394 
Q 2719 3394 3200 2905 
Q 3681 2416 3681 1669 
Q 3681 916 3195 420 
Q 2709 -75 1972 -75 
Q 1516 -75 1102 131 
Q 688 338 472 736 
Q 256 1134 256 1706 
z
M 1156 1659 
Q 1156 1166 1390 903 
Q 1625 641 1969 641 
Q 2313 641 2545 903 
Q 2778 1166 2778 1666 
Q 2778 2153 2545 2415 
Q 2313 2678 1969 2678 
Q 1625 2678 1390 2415 
Q 1156 2153 1156 1659 
z
" transform="scale(0.015625)"/>
       <path id="Arial-BoldMT-63" d="M 3353 2338 
L 2488 2181 
Q 2444 2441 2289 2572 
Q 2134 2703 1888 2703 
Q 1559 2703 1364 2476 
Q 1169 2250 1169 1719 
Q 1169 1128 1367 884 
Q 1566 641 1900 641 
Q 2150 641 2309 783 
Q 2469 925 2534 1272 
L 3397 1125 
Q 3263 531 2881 228 
Q 2500 -75 1859 -75 
Q 1131 -75 698 384 
Q 266 844 266 1656 
Q 266 2478 700 2936 
Q 1134 3394 1875 3394 
Q 2481 3394 2839 3133 
Q 3197 2872 3353 2338 
z
" transform="scale(0.015625)"/>
       <path id="Arial-BoldMT-61" d="M 1116 2306 
L 319 2450 
Q 453 2931 781 3162 
Q 1109 3394 1756 3394 
Q 2344 3394 2631 3255 
Q 2919 3116 3036 2902 
Q 3153 2688 3153 2116 
L 3144 1091 
Q 3144 653 3186 445 
Q 3228 238 3344 0 
L 2475 0 
Q 2441 88 2391 259 
Q 2369 338 2359 363 
Q 2134 144 1878 34 
Q 1622 -75 1331 -75 
Q 819 -75 523 203 
Q 228 481 228 906 
Q 228 1188 362 1408 
Q 497 1628 739 1745 
Q 981 1863 1438 1950 
Q 2053 2066 2291 2166 
L 2291 2253 
Q 2291 2506 2166 2614 
Q 2041 2722 1694 2722 
Q 1459 2722 1328 2630 
Q 1197 2538 1116 2306 
z
M 2291 1594 
Q 2122 1538 1756 1459 
Q 1391 1381 1278 1306 
Q 1106 1184 1106 997 
Q 1106 813 1243 678 
Q 1381 544 1594 544 
Q 1831 544 2047 700 
Q 2206 819 2256 991 
Q 2291 1103 2291 1419 
L 2291 1594 
z
" transform="scale(0.015625)"/>
       <path id="Arial-BoldMT-6c" d="M 459 0 
L 459 4581 
L 1338 4581 
L 1338 0 
L 459 0 
z
" transform="scale(0.015625)"/>
       <path id="Arial-BoldMT-69" d="M 459 3769 
L 459 4581 
L 1338 4581 
L 1338 3769 
L 459 3769 
z
M 459 0 
L 459 3319 
L 1338 3319 
L 1338 0 
L 459 0 
z
" transform="scale(0.015625)"/>
       <path id="Arial-BoldMT-7a" d="M 106 0 
L 106 684 
L 1350 2113 
Q 1656 2463 1803 2609 
Q 1650 2600 1400 2597 
L 228 2591 
L 228 3319 
L 2972 3319 
L 2972 2697 
L 1703 1234 
L 1256 750 
Q 1622 772 1709 772 
L 3069 772 
L 3069 0 
L 106 0 
z
" transform="scale(0.015625)"/>
       <path id="Arial-BoldMT-74" d="M 1981 3319 
L 1981 2619 
L 1381 2619 
L 1381 1281 
Q 1381 875 1398 808 
Q 1416 741 1477 697 
Q 1538 653 1625 653 
Q 1747 653 1978 738 
L 2053 56 
Q 1747 -75 1359 -75 
Q 1122 -75 931 4 
Q 741 84 652 211 
Q 563 338 528 553 
Q 500 706 500 1172 
L 500 2619 
L 97 2619 
L 97 3319 
L 500 3319 
L 500 3978 
L 1381 4491 
L 1381 3319 
L 1981 3319 
z
" transform="scale(0.015625)"/>
       <path id="Arial-BoldMT-6e" d="M 3478 0 
L 2600 0 
L 2600 1694 
Q 2600 2231 2544 2389 
Q 2488 2547 2361 2634 
Q 2234 2722 2056 2722 
Q 1828 2722 1647 2597 
Q 1466 2472 1398 2265 
Q 1331 2059 1331 1503 
L 1331 0 
L 453 0 
L 453 3319 
L 1269 3319 
L 1269 2831 
Q 1703 3394 2363 3394 
Q 2653 3394 2893 3289 
Q 3134 3184 3257 3021 
Q 3381 2859 3429 2653 
Q 3478 2447 3478 2063 
L 3478 0 
z
" transform="scale(0.015625)"/>
       <path id="Arial-BoldMT-20" transform="scale(0.015625)"/>
       <path id="Arial-BoldMT-45" d="M 466 0 
L 466 4581 
L 3863 4581 
L 3863 3806 
L 1391 3806 
L 1391 2791 
L 3691 2791 
L 3691 2019 
L 1391 2019 
L 1391 772 
L 3950 772 
L 3950 0 
L 466 0 
z
" transform="scale(0.015625)"/>
       <path id="Arial-BoldMT-72" d="M 1300 0 
L 422 0 
L 422 3319 
L 1238 3319 
L 1238 2847 
Q 1447 3181 1614 3287 
Q 1781 3394 1994 3394 
Q 2294 3394 2572 3228 
L 2300 2463 
Q 2078 2606 1888 2606 
Q 1703 2606 1575 2504 
Q 1447 2403 1373 2137 
Q 1300 1872 1300 1025 
L 1300 0 
z
" transform="scale(0.015625)"/>
       <path id="Arial-BoldMT-28" d="M 1916 -1347 
L 1313 -1347 
Q 834 -625 584 153 
Q 334 931 334 1659 
Q 334 2563 644 3369 
Q 913 4069 1325 4659 
L 1925 4659 
Q 1497 3713 1336 3048 
Q 1175 2384 1175 1641 
Q 1175 1128 1270 590 
Q 1366 53 1531 -431 
Q 1641 -750 1916 -1347 
z
" transform="scale(0.015625)"/>
       <path id="Arial-BoldMT-6b" d="M 428 0 
L 428 4581 
L 1306 4581 
L 1306 2150 
L 2334 3319 
L 3416 3319 
L 2281 2106 
L 3497 0 
L 2550 0 
L 1716 1491 
L 1306 1063 
L 1306 0 
L 428 0 
z
" transform="scale(0.015625)"/>
       <path id="Arial-BoldMT-6d" d="M 394 3319 
L 1203 3319 
L 1203 2866 
Q 1638 3394 2238 3394 
Q 2556 3394 2790 3262 
Q 3025 3131 3175 2866 
Q 3394 3131 3647 3262 
Q 3900 3394 4188 3394 
Q 4553 3394 4806 3245 
Q 5059 3097 5184 2809 
Q 5275 2597 5275 2122 
L 5275 0 
L 4397 0 
L 4397 1897 
Q 4397 2391 4306 2534 
Q 4184 2722 3931 2722 
Q 3747 2722 3584 2609 
Q 3422 2497 3350 2280 
Q 3278 2063 3278 1594 
L 3278 0 
L 2400 0 
L 2400 1819 
Q 2400 2303 2353 2443 
Q 2306 2584 2207 2653 
Q 2109 2722 1941 2722 
Q 1738 2722 1575 2612 
Q 1413 2503 1342 2297 
Q 1272 2091 1272 1613 
L 1272 0 
L 394 0 
L 394 3319 
z
" transform="scale(0.015625)"/>
       <path id="Arial-BoldMT-29" d="M 216 -1347 
Q 475 -791 581 -494 
Q 688 -197 778 190 
Q 869 578 912 926 
Q 956 1275 956 1641 
Q 956 2384 797 3048 
Q 638 3713 209 4659 
L 806 4659 
Q 1278 3988 1539 3234 
Q 1800 2481 1800 1706 
Q 1800 1053 1594 306 
Q 1359 -531 822 -1347 
L 216 -1347 
z
" transform="scale(0.015625)"/>
       <path id="Arial-BoldMT-5b" d="M 456 -1291 
L 456 4581 
L 2013 4581 
L 2013 3891 
L 1291 3891 
L 1291 -600 
L 2013 -600 
L 2013 -1291 
L 456 -1291 
z
" transform="scale(0.015625)"/>
       <path id="Arial-BoldMT-67" d="M 378 -219 
L 1381 -341 
Q 1406 -516 1497 -581 
Q 1622 -675 1891 -675 
Q 2234 -675 2406 -572 
Q 2522 -503 2581 -350 
Q 2622 -241 2622 53 
L 2622 538 
Q 2228 0 1628 0 
Q 959 0 569 566 
Q 263 1013 263 1678 
Q 263 2513 664 2953 
Q 1066 3394 1663 3394 
Q 2278 3394 2678 2853 
L 2678 3319 
L 3500 3319 
L 3500 341 
Q 3500 -247 3403 -537 
Q 3306 -828 3131 -993 
Q 2956 -1159 2664 -1253 
Q 2372 -1347 1925 -1347 
Q 1081 -1347 728 -1058 
Q 375 -769 375 -325 
Q 375 -281 378 -219 
z
M 1163 1728 
Q 1163 1200 1367 954 
Q 1572 709 1872 709 
Q 2194 709 2416 961 
Q 2638 1213 2638 1706 
Q 2638 2222 2425 2472 
Q 2213 2722 1888 2722 
Q 1572 2722 1367 2476 
Q 1163 2231 1163 1728 
z
" transform="scale(0.015625)"/>
       <path id="Arial-BoldMT-53" d="M 231 1491 
L 1131 1578 
Q 1213 1125 1461 912 
Q 1709 700 2131 700 
Q 2578 700 2804 889 
Q 3031 1078 3031 1331 
Q 3031 1494 2936 1608 
Q 2841 1722 2603 1806 
Q 2441 1863 1863 2006 
Q 1119 2191 819 2459 
Q 397 2838 397 3381 
Q 397 3731 595 4036 
Q 794 4341 1167 4500 
Q 1541 4659 2069 4659 
Q 2931 4659 3367 4281 
Q 3803 3903 3825 3272 
L 2900 3231 
Q 2841 3584 2645 3739 
Q 2450 3894 2059 3894 
Q 1656 3894 1428 3728 
Q 1281 3622 1281 3444 
Q 1281 3281 1419 3166 
Q 1594 3019 2269 2859 
Q 2944 2700 3267 2529 
Q 3591 2359 3773 2064 
Q 3956 1769 3956 1334 
Q 3956 941 3737 597 
Q 3519 253 3119 86 
Q 2719 -81 2122 -81 
Q 1253 -81 787 320 
Q 322 722 231 1491 
z
" transform="scale(0.015625)"/>
       <path id="Arial-BoldMT-65" d="M 2381 1056 
L 3256 909 
Q 3088 428 2723 176 
Q 2359 -75 1813 -75 
Q 947 -75 531 491 
Q 203 944 203 1634 
Q 203 2459 634 2926 
Q 1066 3394 1725 3394 
Q 2466 3394 2894 2905 
Q 3322 2416 3303 1406 
L 1103 1406 
Q 1113 1016 1316 798 
Q 1519 581 1822 581 
Q 2028 581 2168 693 
Q 2309 806 2381 1056 
z
M 2431 1944 
Q 2422 2325 2234 2523 
Q 2047 2722 1778 2722 
Q 1491 2722 1303 2513 
Q 1116 2303 1119 1944 
L 2431 1944 
z
" transform="scale(0.015625)"/>
       <path id="Arial-BoldMT-5d" d="M 1675 4581 
L 1675 -1291 
L 119 -1291 
L 119 -600 
L 841 -600 
L 841 3897 
L 119 3897 
L 119 4581 
L 1675 4581 
z
" transform="scale(0.015625)"/>
      </defs>
      <use xlink:href="#Arial-BoldMT-4c"/>
      <use xlink:href="#Arial-BoldMT-6f" transform="translate(61.083984 0)"/>
      <use xlink:href="#Arial-BoldMT-63" transform="translate(122.167969 0)"/>
      <use xlink:href="#Arial-BoldMT-61" transform="translate(177.783203 0)"/>
      <use xlink:href="#Arial-BoldMT-6c" transform="translate(233.398438 0)"/>
      <use xlink:href="#Arial-BoldMT-69" transform="translate(261.181641 0)"/>
      <use xlink:href="#Arial-BoldMT-7a" transform="translate(288.964844 0)"/>
      <use xlink:href="#Arial-BoldMT-61" transform="translate(338.964844 0)"/>
      <use xlink:href="#Arial-BoldMT-74" transform="translate(394.580078 0)"/>
      <use xlink:href="#Arial-BoldMT-69" transform="translate(427.880859 0)"/>
      <use xlink:href="#Arial-BoldMT-6f" transform="translate(455.664062 0)"/>
      <use xlink:href="#Arial-BoldMT-6e" transform="translate(516.748047 0)"/>
      <use xlink:href="#Arial-BoldMT-20" transform="translate(577.832031 0)"/>
      <use xlink:href="#Arial-BoldMT-45" transform="translate(605.615234 0)"/>
      <use xlink:href="#Arial-BoldMT-72" transform="translate(672.314453 0)"/>
      <use xlink:href="#Arial-BoldMT-72" transform="translate(711.230469 0)"/>
      <use xlink:href="#Arial-BoldMT-6f" transform="translate(750.146484 0)"/>
      <use xlink:href="#Arial-BoldMT-72" transform="translate(811.230469 0)"/>
      <use xlink:href="#Arial-BoldMT-20" transform="translate(850.146484 0)"/>
      <use xlink:href="#Arial-BoldMT-28" transform="translate(877.929688 0)"/>
      <use xlink:href="#Arial-BoldMT-6b" transform="translate(911.230469 0)"/>
      <use xlink:href="#Arial-BoldMT-6d" transform="translate(966.845703 0)"/>
      <use xlink:href="#Arial-BoldMT-29" transform="translate(1055.761719 0)"/>
      <use xlink:href="#Arial-BoldMT-20" transform="translate(1089.0625 0)"/>
      <use xlink:href="#Arial-BoldMT-5b" transform="translate(1116.845703 0)"/>
      <use xlink:href="#Arial-BoldMT-4c" transform="translate(1150.146484 0)"/>
      <use xlink:href="#Arial-BoldMT-6f" transform="translate(1211.230469 0)"/>
      <use xlink:href="#Arial-BoldMT-67" transform="translate(1272.314453 0)"/>
      <use xlink:href="#Arial-BoldMT-20" transform="translate(1333.398438 0)"/>
      <use xlink:href="#Arial-BoldMT-53" transform="translate(1361.181641 0)"/>
      <use xlink:href="#Arial-BoldMT-63" transform="translate(1427.880859 0)"/>
      <use xlink:href="#Arial-BoldMT-61" transform="translate(1483.496094 0)"/>
      <use xlink:href="#Arial-BoldMT-6c" transform="translate(1539.111328 0)"/>
      <use xlink:href="#Arial-BoldMT-65" transform="translate(1566.894531 0)"/>
      <use xlink:href="#Arial-BoldMT-5d" transform="translate(1622.509766 0)"/>
     </g>
    </g>
   </g>
   <g id="matplotlib.axis_2">
    <g id="ytick_1">
     <g id="line2d_7">
      <path d="M 47.666563 339.84 
L 605.666563 339.84 
" clip-path="url(#p4d554a4d19)" style="fill: none; stroke: #cccccc; stroke-width: 0.8; stroke-linecap: round"/>
     </g>
     <g id="text_8">
      <!-- 0 -->
      <g style="fill: #262626" transform="translate(35.105625 343.418906) scale(0.1 -0.1)">
       <use xlink:href="#ArialMT-30"/>
      </g>
     </g>
    </g>
    <g id="ytick_2">
     <g id="line2d_8">
      <path d="M 47.666563 293.793488 
L 605.666563 293.793488 
" clip-path="url(#p4d554a4d19)" style="fill: none; stroke: #cccccc; stroke-width: 0.8; stroke-linecap: round"/>
     </g>
     <g id="text_9">
      <!-- 25 -->
      <g style="fill: #262626" transform="translate(29.544688 297.372395) scale(0.1 -0.1)">
       <defs>
        <path id="ArialMT-35" d="M 266 1200 
L 856 1250 
Q 922 819 1161 601 
Q 1400 384 1738 384 
Q 2144 384 2425 690 
Q 2706 997 2706 1503 
Q 2706 1984 2436 2262 
Q 2166 2541 1728 2541 
Q 1456 2541 1237 2417 
Q 1019 2294 894 2097 
L 366 2166 
L 809 4519 
L 3088 4519 
L 3088 3981 
L 1259 3981 
L 1013 2750 
Q 1425 3038 1878 3038 
Q 2478 3038 2890 2622 
Q 3303 2206 3303 1553 
Q 3303 931 2941 478 
Q 2500 -78 1738 -78 
Q 1113 -78 717 272 
Q 322 622 266 1200 
z
" transform="scale(0.015625)"/>
       </defs>
       <use xlink:href="#ArialMT-32"/>
       <use xlink:href="#ArialMT-35" transform="translate(55.615234 0)"/>
      </g>
     </g>
    </g>
    <g id="ytick_3">
     <g id="line2d_9">
      <path d="M 47.666563 247.746977 
L 605.666563 247.746977 
" clip-path="url(#p4d554a4d19)" style="fill: none; stroke: #cccccc; stroke-width: 0.8; stroke-linecap: round"/>
     </g>
     <g id="text_10">
      <!-- 50 -->
      <g style="fill: #262626" transform="translate(29.544688 251.325883) scale(0.1 -0.1)">
       <use xlink:href="#ArialMT-35"/>
       <use xlink:href="#ArialMT-30" transform="translate(55.615234 0)"/>
      </g>
     </g>
    </g>
    <g id="ytick_4">
     <g id="line2d_10">
      <path d="M 47.666563 201.700465 
L 605.666563 201.700465 
" clip-path="url(#p4d554a4d19)" style="fill: none; stroke: #cccccc; stroke-width: 0.8; stroke-linecap: round"/>
     </g>
     <g id="text_11">
      <!-- 75 -->
      <g style="fill: #262626" transform="translate(29.544688 205.279371) scale(0.1 -0.1)">
       <defs>
        <path id="ArialMT-37" d="M 303 3981 
L 303 4522 
L 3269 4522 
L 3269 4084 
Q 2831 3619 2401 2847 
Q 1972 2075 1738 1259 
Q 1569 684 1522 0 
L 944 0 
Q 953 541 1156 1306 
Q 1359 2072 1739 2783 
Q 2119 3494 2547 3981 
L 303 3981 
z
" transform="scale(0.015625)"/>
       </defs>
       <use xlink:href="#ArialMT-37"/>
       <use xlink:href="#ArialMT-35" transform="translate(55.615234 0)"/>
      </g>
     </g>
    </g>
    <g id="ytick_5">
     <g id="line2d_11">
      <path d="M 47.666563 155.653953 
L 605.666563 155.653953 
" clip-path="url(#p4d554a4d19)" style="fill: none; stroke: #cccccc; stroke-width: 0.8; stroke-linecap: round"/>
     </g>
     <g id="text_12">
      <!-- 100 -->
      <g style="fill: #262626" transform="translate(23.98375 159.23286) scale(0.1 -0.1)">
       <use xlink:href="#ArialMT-31"/>
       <use xlink:href="#ArialMT-30" transform="translate(55.615234 0)"/>
       <use xlink:href="#ArialMT-30" transform="translate(111.230469 0)"/>
      </g>
     </g>
    </g>
    <g id="ytick_6">
     <g id="line2d_12">
      <path d="M 47.666563 109.607442 
L 605.666563 109.607442 
" clip-path="url(#p4d554a4d19)" style="fill: none; stroke: #cccccc; stroke-width: 0.8; stroke-linecap: round"/>
     </g>
     <g id="text_13">
      <!-- 125 -->
      <g style="fill: #262626" transform="translate(23.98375 113.186348) scale(0.1 -0.1)">
       <use xlink:href="#ArialMT-31"/>
       <use xlink:href="#ArialMT-32" transform="translate(55.615234 0)"/>
       <use xlink:href="#ArialMT-35" transform="translate(111.230469 0)"/>
      </g>
     </g>
    </g>
    <g id="ytick_7">
     <g id="line2d_13">
      <path d="M 47.666563 63.56093 
L 605.666563 63.56093 
" clip-path="url(#p4d554a4d19)" style="fill: none; stroke: #cccccc; stroke-width: 0.8; stroke-linecap: round"/>
     </g>
     <g id="text_14">
      <!-- 150 -->
      <g style="fill: #262626" transform="translate(23.98375 67.139836) scale(0.1 -0.1)">
       <use xlink:href="#ArialMT-31"/>
       <use xlink:href="#ArialMT-35" transform="translate(55.615234 0)"/>
       <use xlink:href="#ArialMT-30" transform="translate(111.230469 0)"/>
      </g>
     </g>
    </g>
    <g id="ytick_8">
     <g id="line2d_14">
      <path d="M 47.666563 17.514419 
L 605.666563 17.514419 
" clip-path="url(#p4d554a4d19)" style="fill: none; stroke: #cccccc; stroke-width: 0.8; stroke-linecap: round"/>
     </g>
     <g id="text_15">
      <!-- 175 -->
      <g style="fill: #262626" transform="translate(23.98375 21.093325) scale(0.1 -0.1)">
       <use xlink:href="#ArialMT-31"/>
       <use xlink:href="#ArialMT-37" transform="translate(55.615234 0)"/>
       <use xlink:href="#ArialMT-35" transform="translate(111.230469 0)"/>
      </g>
     </g>
    </g>
    <g id="text_16">
     <!-- Count -->
     <g style="fill: #262626" transform="translate(17.220938 193.7325) rotate(-90) scale(0.14 -0.14)">
      <defs>
       <path id="Arial-BoldMT-43" d="M 3397 1684 
L 4294 1400 
Q 4088 650 3608 286 
Q 3128 -78 2391 -78 
Q 1478 -78 890 545 
Q 303 1169 303 2250 
Q 303 3394 893 4026 
Q 1484 4659 2447 4659 
Q 3288 4659 3813 4163 
Q 4125 3869 4281 3319 
L 3366 3100 
Q 3284 3456 3026 3662 
Q 2769 3869 2400 3869 
Q 1891 3869 1573 3503 
Q 1256 3138 1256 2319 
Q 1256 1450 1568 1081 
Q 1881 713 2381 713 
Q 2750 713 3015 947 
Q 3281 1181 3397 1684 
z
" transform="scale(0.015625)"/>
       <path id="Arial-BoldMT-75" d="M 2644 0 
L 2644 497 
Q 2463 231 2167 78 
Q 1872 -75 1544 -75 
Q 1209 -75 943 72 
Q 678 219 559 484 
Q 441 750 441 1219 
L 441 3319 
L 1319 3319 
L 1319 1794 
Q 1319 1094 1367 936 
Q 1416 778 1544 686 
Q 1672 594 1869 594 
Q 2094 594 2272 717 
Q 2450 841 2515 1023 
Q 2581 1206 2581 1919 
L 2581 3319 
L 3459 3319 
L 3459 0 
L 2644 0 
z
" transform="scale(0.015625)"/>
      </defs>
      <use xlink:href="#Arial-BoldMT-43"/>
      <use xlink:href="#Arial-BoldMT-6f" transform="translate(72.216797 0)"/>
      <use xlink:href="#Arial-BoldMT-75" transform="translate(133.300781 0)"/>
      <use xlink:href="#Arial-BoldMT-6e" transform="translate(194.384766 0)"/>
      <use xlink:href="#Arial-BoldMT-74" transform="translate(255.46875 0)"/>
     </g>
    </g>
   </g>
   <g id="patch_3">
    <path d="M 73.030199 339.84 
L 83.175653 339.84 
L 83.175653 337.99814 
L 73.030199 337.99814 
z
" clip-path="url(#p4d554a4d19)" style="fill: #800080; fill-opacity: 0.5; stroke: #ffffff; stroke-linejoin: miter"/>
   </g>
   <g id="patch_4">
    <path d="M 83.175653 339.84 
L 93.321108 339.84 
L 93.321108 337.99814 
L 83.175653 337.99814 
z
" clip-path="url(#p4d554a4d19)" style="fill: #800080; fill-opacity: 0.5; stroke: #ffffff; stroke-linejoin: miter"/>
   </g>
   <g id="patch_5">
    <path d="M 93.321108 339.84 
L 103.466563 339.84 
L 103.466563 328.788837 
L 93.321108 328.788837 
z
" clip-path="url(#p4d554a4d19)" style="fill: #800080; fill-opacity: 0.5; stroke: #ffffff; stroke-linejoin: miter"/>
   </g>
   <g id="patch_6">
    <path d="M 103.466563 339.84 
L 113.612017 339.84 
L 113.612017 328.788837 
L 103.466563 328.788837 
z
" clip-path="url(#p4d554a4d19)" style="fill: #800080; fill-opacity: 0.5; stroke: #ffffff; stroke-linejoin: miter"/>
   </g>
   <g id="patch_7">
    <path d="M 113.612017 339.84 
L 123.757472 339.84 
L 123.757472 328.788837 
L 113.612017 328.788837 
z
" clip-path="url(#p4d554a4d19)" style="fill: #800080; fill-opacity: 0.5; stroke: #ffffff; stroke-linejoin: miter"/>
   </g>
   <g id="patch_8">
    <path d="M 123.757472 339.84 
L 133.902926 339.84 
L 133.902926 325.105116 
L 123.757472 325.105116 
z
" clip-path="url(#p4d554a4d19)" style="fill: #800080; fill-opacity: 0.5; stroke: #ffffff; stroke-linejoin: miter"/>
   </g>
   <g id="patch_9">
    <path d="M 133.902926 339.84 
L 144.048381 339.84 
L 144.048381 310.370233 
L 133.902926 310.370233 
z
" clip-path="url(#p4d554a4d19)" style="fill: #800080; fill-opacity: 0.5; stroke: #ffffff; stroke-linejoin: miter"/>
   </g>
   <g id="patch_10">
    <path d="M 144.048381 339.84 
L 154.193835 339.84 
L 154.193835 306.686512 
L 144.048381 306.686512 
z
" clip-path="url(#p4d554a4d19)" style="fill: #800080; fill-opacity: 0.5; stroke: #ffffff; stroke-linejoin: miter"/>
   </g>
   <g id="patch_11">
    <path d="M 154.193835 339.84 
L 164.33929 339.84 
L 164.33929 275.374884 
L 154.193835 275.374884 
z
" clip-path="url(#p4d554a4d19)" style="fill: #800080; fill-opacity: 0.5; stroke: #ffffff; stroke-linejoin: miter"/>
   </g>
   <g id="patch_12">
    <path d="M 164.33929 339.84 
L 174.484744 339.84 
L 174.484744 258.79814 
L 164.33929 258.79814 
z
" clip-path="url(#p4d554a4d19)" style="fill: #800080; fill-opacity: 0.5; stroke: #ffffff; stroke-linejoin: miter"/>
   </g>
   <g id="patch_13">
    <path d="M 174.484744 339.84 
L 184.630199 339.84 
L 184.630199 223.802791 
L 174.484744 223.802791 
z
" clip-path="url(#p4d554a4d19)" style="fill: #800080; fill-opacity: 0.5; stroke: #ffffff; stroke-linejoin: miter"/>
   </g>
   <g id="patch_14">
    <path d="M 184.630199 339.84 
L 194.775653 339.84 
L 194.775653 269.849302 
L 184.630199 269.849302 
z
" clip-path="url(#p4d554a4d19)" style="fill: #800080; fill-opacity: 0.5; stroke: #ffffff; stroke-linejoin: miter"/>
   </g>
   <g id="patch_15">
    <path d="M 194.775653 339.84 
L 204.921108 339.84 
L 204.921108 314.053953 
L 194.775653 314.053953 
z
" clip-path="url(#p4d554a4d19)" style="fill: #800080; fill-opacity: 0.5; stroke: #ffffff; stroke-linejoin: miter"/>
   </g>
   <g id="patch_16">
    <path d="M 204.921108 339.84 
L 215.066563 339.84 
L 215.066563 312.212093 
L 204.921108 312.212093 
z
" clip-path="url(#p4d554a4d19)" style="fill: #800080; fill-opacity: 0.5; stroke: #ffffff; stroke-linejoin: miter"/>
   </g>
   <g id="patch_17">
    <path d="M 215.066563 339.84 
L 225.212017 339.84 
L 225.212017 288.267907 
L 215.066563 288.267907 
z
" clip-path="url(#p4d554a4d19)" style="fill: #800080; fill-opacity: 0.5; stroke: #ffffff; stroke-linejoin: miter"/>
   </g>
   <g id="patch_18">
    <path d="M 225.212017 339.84 
L 235.357472 339.84 
L 235.357472 297.477209 
L 225.212017 297.477209 
z
" clip-path="url(#p4d554a4d19)" style="fill: #800080; fill-opacity: 0.5; stroke: #ffffff; stroke-linejoin: miter"/>
   </g>
   <g id="patch_19">
    <path d="M 235.357472 339.84 
L 245.502926 339.84 
L 245.502926 304.844651 
L 235.357472 304.844651 
z
" clip-path="url(#p4d554a4d19)" style="fill: #800080; fill-opacity: 0.5; stroke: #ffffff; stroke-linejoin: miter"/>
   </g>
   <g id="patch_20">
    <path d="M 245.502926 339.84 
L 255.648381 339.84 
L 255.648381 304.844651 
L 245.502926 304.844651 
z
" clip-path="url(#p4d554a4d19)" style="fill: #800080; fill-opacity: 0.5; stroke: #ffffff; stroke-linejoin: miter"/>
   </g>
   <g id="patch_21">
    <path d="M 255.648381 339.84 
L 265.793835 339.84 
L 265.793835 301.16093 
L 255.648381 301.16093 
z
" clip-path="url(#p4d554a4d19)" style="fill: #800080; fill-opacity: 0.5; stroke: #ffffff; stroke-linejoin: miter"/>
   </g>
   <g id="patch_22">
    <path d="M 265.793835 339.84 
L 275.93929 339.84 
L 275.93929 282.742326 
L 265.793835 282.742326 
z
" clip-path="url(#p4d554a4d19)" style="fill: #800080; fill-opacity: 0.5; stroke: #ffffff; stroke-linejoin: miter"/>
   </g>
   <g id="patch_23">
    <path d="M 275.93929 339.84 
L 286.084744 339.84 
L 286.084744 264.323721 
L 275.93929 264.323721 
z
" clip-path="url(#p4d554a4d19)" style="fill: #800080; fill-opacity: 0.5; stroke: #ffffff; stroke-linejoin: miter"/>
   </g>
   <g id="patch_24">
    <path d="M 286.084744 339.84 
L 296.230199 339.84 
L 296.230199 280.900465 
L 286.084744 280.900465 
z
" clip-path="url(#p4d554a4d19)" style="fill: #800080; fill-opacity: 0.5; stroke: #ffffff; stroke-linejoin: miter"/>
   </g>
   <g id="patch_25">
    <path d="M 296.230199 339.84 
L 306.375653 339.84 
L 306.375653 251.430698 
L 296.230199 251.430698 
z
" clip-path="url(#p4d554a4d19)" style="fill: #800080; fill-opacity: 0.5; stroke: #ffffff; stroke-linejoin: miter"/>
   </g>
   <g id="patch_26">
    <path d="M 306.375653 339.84 
L 316.521108 339.84 
L 316.521108 205.384186 
L 306.375653 205.384186 
z
" clip-path="url(#p4d554a4d19)" style="fill: #800080; fill-opacity: 0.5; stroke: #ffffff; stroke-linejoin: miter"/>
   </g>
   <g id="patch_27">
    <path d="M 316.521108 339.84 
L 326.666562 339.84 
L 326.666562 216.435349 
L 316.521108 216.435349 
z
" clip-path="url(#p4d554a4d19)" style="fill: #800080; fill-opacity: 0.5; stroke: #ffffff; stroke-linejoin: miter"/>
   </g>
   <g id="patch_28">
    <path d="M 326.666562 339.84 
L 336.812017 339.84 
L 336.812017 199.858605 
L 326.666562 199.858605 
z
" clip-path="url(#p4d554a4d19)" style="fill: #800080; fill-opacity: 0.5; stroke: #ffffff; stroke-linejoin: miter"/>
   </g>
   <g id="patch_29">
    <path d="M 336.812017 339.84 
L 346.957472 339.84 
L 346.957472 177.756279 
L 336.812017 177.756279 
z
" clip-path="url(#p4d554a4d19)" style="fill: #800080; fill-opacity: 0.5; stroke: #ffffff; stroke-linejoin: miter"/>
   </g>
   <g id="patch_30">
    <path d="M 346.957472 339.84 
L 357.102926 339.84 
L 357.102926 188.807442 
L 346.957472 188.807442 
z
" clip-path="url(#p4d554a4d19)" style="fill: #800080; fill-opacity: 0.5; stroke: #ffffff; stroke-linejoin: miter"/>
   </g>
   <g id="patch_31">
    <path d="M 357.102926 339.84 
L 367.248381 339.84 
L 367.248381 179.59814 
L 357.102926 179.59814 
z
" clip-path="url(#p4d554a4d19)" style="fill: #800080; fill-opacity: 0.5; stroke: #ffffff; stroke-linejoin: miter"/>
   </g>
   <g id="patch_32">
    <path d="M 367.248381 339.84 
L 377.393835 339.84 
L 377.393835 164.863256 
L 367.248381 164.863256 
z
" clip-path="url(#p4d554a4d19)" style="fill: #800080; fill-opacity: 0.5; stroke: #ffffff; stroke-linejoin: miter"/>
   </g>
   <g id="patch_33">
    <path d="M 377.393835 339.84 
L 387.53929 339.84 
L 387.53929 181.44 
L 377.393835 181.44 
z
" clip-path="url(#p4d554a4d19)" style="fill: #800080; fill-opacity: 0.5; stroke: #ffffff; stroke-linejoin: miter"/>
   </g>
   <g id="patch_34">
    <path d="M 387.53929 339.84 
L 397.684744 339.84 
L 397.684744 128.026047 
L 387.53929 128.026047 
z
" clip-path="url(#p4d554a4d19)" style="fill: #800080; fill-opacity: 0.5; stroke: #ffffff; stroke-linejoin: miter"/>
   </g>
   <g id="patch_35">
    <path d="M 397.684744 339.84 
L 407.830199 339.84 
L 407.830199 159.337674 
L 397.684744 159.337674 
z
" clip-path="url(#p4d554a4d19)" style="fill: #800080; fill-opacity: 0.5; stroke: #ffffff; stroke-linejoin: miter"/>
   </g>
   <g id="patch_36">
    <path d="M 407.830199 339.84 
L 417.975653 339.84 
L 417.975653 135.393488 
L 407.830199 135.393488 
z
" clip-path="url(#p4d554a4d19)" style="fill: #800080; fill-opacity: 0.5; stroke: #ffffff; stroke-linejoin: miter"/>
   </g>
   <g id="patch_37">
    <path d="M 417.975653 339.84 
L 428.121108 339.84 
L 428.121108 80.137674 
L 417.975653 80.137674 
z
" clip-path="url(#p4d554a4d19)" style="fill: #800080; fill-opacity: 0.5; stroke: #ffffff; stroke-linejoin: miter"/>
   </g>
   <g id="patch_38">
    <path d="M 428.121108 339.84 
L 438.266563 339.84 
L 438.266563 170.388837 
L 428.121108 170.388837 
z
" clip-path="url(#p4d554a4d19)" style="fill: #800080; fill-opacity: 0.5; stroke: #ffffff; stroke-linejoin: miter"/>
   </g>
   <g id="patch_39">
    <path d="M 438.266563 339.84 
L 448.412017 339.84 
L 448.412017 109.607442 
L 438.266563 109.607442 
z
" clip-path="url(#p4d554a4d19)" style="fill: #800080; fill-opacity: 0.5; stroke: #ffffff; stroke-linejoin: miter"/>
   </g>
   <g id="patch_40">
    <path d="M 448.412017 339.84 
L 458.557472 339.84 
L 458.557472 153.812093 
L 448.412017 153.812093 
z
" clip-path="url(#p4d554a4d19)" style="fill: #800080; fill-opacity: 0.5; stroke: #ffffff; stroke-linejoin: miter"/>
   </g>
   <g id="patch_41">
    <path d="M 458.557472 339.84 
L 468.702926 339.84 
L 468.702926 135.393488 
L 458.557472 135.393488 
z
" clip-path="url(#p4d554a4d19)" style="fill: #800080; fill-opacity: 0.5; stroke: #ffffff; stroke-linejoin: miter"/>
   </g>
   <g id="patch_42">
    <path d="M 468.702926 339.84 
L 478.848381 339.84 
L 478.848381 153.812093 
L 468.702926 153.812093 
z
" clip-path="url(#p4d554a4d19)" style="fill: #800080; fill-opacity: 0.5; stroke: #ffffff; stroke-linejoin: miter"/>
   </g>
   <g id="patch_43">
    <path d="M 478.848381 339.84 
L 488.993835 339.84 
L 488.993835 186.965581 
L 478.848381 186.965581 
z
" clip-path="url(#p4d554a4d19)" style="fill: #800080; fill-opacity: 0.5; stroke: #ffffff; stroke-linejoin: miter"/>
   </g>
   <g id="patch_44">
    <path d="M 488.993835 339.84 
L 499.13929 339.84 
L 499.13929 244.063256 
L 488.993835 244.063256 
z
" clip-path="url(#p4d554a4d19)" style="fill: #800080; fill-opacity: 0.5; stroke: #ffffff; stroke-linejoin: miter"/>
   </g>
   <g id="patch_45">
    <path d="M 499.13929 339.84 
L 509.284744 339.84 
L 509.284744 266.165581 
L 499.13929 266.165581 
z
" clip-path="url(#p4d554a4d19)" style="fill: #800080; fill-opacity: 0.5; stroke: #ffffff; stroke-linejoin: miter"/>
   </g>
   <g id="patch_46">
    <path d="M 509.284744 339.84 
L 519.430199 339.84 
L 519.430199 277.216744 
L 509.284744 277.216744 
z
" clip-path="url(#p4d554a4d19)" style="fill: #800080; fill-opacity: 0.5; stroke: #ffffff; stroke-linejoin: miter"/>
   </g>
   <g id="patch_47">
    <path d="M 519.430199 339.84 
L 529.575653 339.84 
L 529.575653 236.695814 
L 519.430199 236.695814 
z
" clip-path="url(#p4d554a4d19)" style="fill: #800080; fill-opacity: 0.5; stroke: #ffffff; stroke-linejoin: miter"/>
   </g>
   <g id="patch_48">
    <path d="M 529.575653 339.84 
L 539.721108 339.84 
L 539.721108 83.821395 
L 529.575653 83.821395 
z
" clip-path="url(#p4d554a4d19)" style="fill: #800080; fill-opacity: 0.5; stroke: #ffffff; stroke-linejoin: miter"/>
   </g>
   <g id="patch_49">
    <path d="M 539.721108 339.84 
L 549.866562 339.84 
L 549.866562 23.04 
L 539.721108 23.04 
z
" clip-path="url(#p4d554a4d19)" style="fill: #800080; fill-opacity: 0.5; stroke: #ffffff; stroke-linejoin: miter"/>
   </g>
   <g id="patch_50">
    <path d="M 549.866563 339.84 
L 560.012017 339.84 
L 560.012017 133.551628 
L 549.866563 133.551628 
z
" clip-path="url(#p4d554a4d19)" style="fill: #800080; fill-opacity: 0.5; stroke: #ffffff; stroke-linejoin: miter"/>
   </g>
   <g id="patch_51">
    <path d="M 560.012017 339.84 
L 570.157472 339.84 
L 570.157472 201.700465 
L 560.012017 201.700465 
z
" clip-path="url(#p4d554a4d19)" style="fill: #800080; fill-opacity: 0.5; stroke: #ffffff; stroke-linejoin: miter"/>
   </g>
   <g id="patch_52">
    <path d="M 570.157472 339.84 
L 580.302926 339.84 
L 580.302926 244.063256 
L 570.157472 244.063256 
z
" clip-path="url(#p4d554a4d19)" style="fill: #800080; fill-opacity: 0.5; stroke: #ffffff; stroke-linejoin: miter"/>
   </g>
   <g id="line2d_15">
    <path d="M 73.030199 337.176971 
L 78.128417 336.356716 
L 83.226636 335.374406 
L 88.324854 334.218119 
L 93.423072 332.872651 
L 98.521291 331.314422 
L 103.619509 329.506293 
L 108.717727 327.394349 
L 113.815946 324.908852 
L 118.914164 321.971101 
L 121.463273 320.308758 
L 124.012383 318.506836 
L 126.561492 316.559901 
L 129.110601 314.46541 
L 134.208819 309.842412 
L 139.307038 304.701916 
L 144.405256 299.193321 
L 152.052584 290.788687 
L 157.150802 285.579071 
L 159.699911 283.233133 
L 162.24902 281.121748 
L 164.798129 279.287278 
L 167.347239 277.766432 
L 169.896348 276.588421 
L 172.445457 275.77338 
L 174.994566 275.331164 
L 177.543675 275.260622 
L 180.092785 275.549422 
L 182.641894 276.174467 
L 185.191003 277.102882 
L 187.740112 278.293528 
L 190.289221 279.698944 
L 195.38744 282.946222 
L 205.583876 289.762463 
L 208.132986 291.284375 
L 210.682095 292.673596 
L 213.231204 293.912867 
L 215.780313 294.991581 
L 218.329422 295.904829 
L 220.878531 296.652192 
L 223.427641 297.236424 
L 225.97675 297.662134 
L 228.525859 297.934589 
L 231.074968 298.058716 
L 233.624077 298.038363 
L 236.173187 297.875848 
L 238.722296 297.571789 
L 241.271405 297.125178 
L 243.820514 296.53366 
L 246.369623 295.793942 
L 248.918732 294.902259 
L 251.467842 293.854844 
L 254.016951 292.648348 
L 256.56606 291.280154 
L 259.115169 289.748586 
L 261.664278 288.053003 
L 264.213388 286.193794 
L 266.762497 284.172302 
L 269.311606 281.99072 
L 271.860715 279.651989 
L 276.958933 274.518278 
L 282.057152 268.808956 
L 287.15537 262.576774 
L 292.253589 255.895768 
L 297.351807 248.866923 
L 317.74468 220.091798 
L 322.842899 213.473597 
L 327.941117 207.309536 
L 333.039335 201.641452 
L 338.137554 196.46431 
L 343.235772 191.730611 
L 348.333991 187.359432 
L 355.981318 181.257096 
L 373.825082 167.419481 
L 384.021519 159.102267 
L 394.217956 150.760765 
L 399.316174 146.833291 
L 404.414393 143.248183 
L 406.963502 141.628976 
L 409.512611 140.148523 
L 412.06172 138.822967 
L 414.610829 137.667022 
L 417.159938 136.693727 
L 419.709048 135.914327 
L 422.258157 135.338295 
L 424.807266 134.973509 
L 427.356375 134.826561 
L 429.905484 134.903177 
L 432.454594 135.208706 
L 435.003703 135.748606 
L 437.552812 136.528888 
L 440.101921 137.556431 
L 442.65103 138.839112 
L 445.200139 140.385706 
L 447.749249 142.205519 
L 450.298358 144.307737 
L 452.847467 146.700512 
L 455.396576 149.389792 
L 457.945685 152.377987 
L 460.494795 155.662497 
L 463.043904 159.234225 
L 465.593013 163.076143 
L 470.691231 171.455368 
L 475.78945 180.463919 
L 480.887668 189.591071 
L 483.436777 193.995383 
L 485.985886 198.169145 
L 488.534996 202.013264 
L 491.084105 205.427645 
L 493.633214 208.314822 
L 496.182323 210.583945 
L 498.731432 212.155022 
L 501.280541 212.963211 
L 503.829651 212.962971 
L 506.37876 212.131837 
L 508.927869 210.473596 
L 511.476978 208.020601 
L 514.026087 204.835026 
L 516.575197 201.008885 
L 519.124306 196.662677 
L 524.222524 187.016512 
L 529.320742 177.291774 
L 531.869852 172.88313 
L 534.418961 169.033652 
L 536.96807 165.92202 
L 539.517179 163.707194 
L 542.066288 162.522087 
L 544.615398 162.468385 
L 547.164507 163.612816 
L 549.713616 165.985016 
L 552.262725 169.577105 
L 554.811834 174.344919 
L 557.360943 180.210792 
L 559.910053 187.067657 
L 562.459162 194.784206 
L 565.008271 203.210772 
L 570.106489 221.541155 
L 580.302926 259.542077 
L 580.302926 259.542077 
" clip-path="url(#p4d554a4d19)" style="fill: none; stroke: #800080; stroke-width: 1.5; stroke-linecap: round"/>
   </g>
   <g id="patch_53">
    <path d="M 47.666563 339.84 
L 47.666563 7.2 
" style="fill: none; stroke: #cccccc; stroke-width: 0.8; stroke-linejoin: miter; stroke-linecap: square"/>
   </g>
   <g id="patch_54">
    <path d="M 605.666563 339.84 
L 605.666563 7.2 
" style="fill: none; stroke: #cccccc; stroke-width: 0.8; stroke-linejoin: miter; stroke-linecap: square"/>
   </g>
   <g id="patch_55">
    <path d="M 47.666563 339.84 
L 605.666563 339.84 
" style="fill: none; stroke: #cccccc; stroke-width: 0.8; stroke-linejoin: miter; stroke-linecap: square"/>
   </g>
   <g id="patch_56">
    <path d="M 47.666563 7.2 
L 605.666563 7.2 
" style="fill: none; stroke: #cccccc; stroke-width: 0.8; stroke-linejoin: miter; stroke-linecap: square"/>
   </g>
  </g>
 </g>
 <defs>
  <clipPath id="p4d554a4d19">
   <rect x="47.666563" y="7.2" width="558" height="332.64"/>
  </clipPath>
 </defs>
</svg>
