<?xml version="1.0" encoding="utf-8" standalone="no"?>
<!DOCTYPE svg PUBLIC "-//W3C//DTD SVG 1.1//EN"
  "http://www.w3.org/Graphics/SVG/1.1/DTD/svg11.dtd">
<svg xmlns:xlink="http://www.w3.org/1999/xlink" width="612.866562pt" height="383.478125pt" viewBox="0 0 612.866562 383.478125" xmlns="http://www.w3.org/2000/svg" version="1.1">
 <metadata>
  <rdf:RDF xmlns:dc="http://purl.org/dc/elements/1.1/" xmlns:cc="http://creativecommons.org/ns#" xmlns:rdf="http://www.w3.org/1999/02/22-rdf-syntax-ns#">
   <cc:Work>
    <dc:type rdf:resource="http://purl.org/dc/dcmitype/StillImage"/>
    <dc:date>2026-07-18T15:43:29.926031</dc:date>
    <dc:format>image/svg+xml</dc:format>
    <dc:creator>
     <cc:Agent>
      <dc:title>Matplotlib v3.10.8, https://matplotlib.org/</dc:title>
     </cc:Agent>
    </dc:creator>
   </cc:Work>
  </rdf:RDF>
 </metadata>
 <defs>
  <style type="text/css">*{stroke-linejoin: round; stroke-linecap: butt}</style>
 </defs>
 <g id="figure_1">
  <g id="patch_1">
   <path d="M 0 383.478125 
L 612.866562 383.478125 
L 612.866562 0 
L 0 0 
z
" style="fill: #ffffff"/>
  </g>
  <g id="axes_1">
   <g id="patch_2">
    <path d="M 47.666563 339.84 
L 605.666563 339.84 
L 605.666563 7.2 
L 47.666563 7.2 
z
" style="fill: #ffffff"/>
   </g>
   <g id="matplotlib.axis_1">
    <g id="xtick_1">
     <g id="line2d_1">
      <path d="M 117.848019 339.84 
L 117.848019 7.2 
" clip-path="url(#paec416974b)" style="fill: none; stroke: #cccccc; stroke-width: 0.8; stroke-linecap: round"/>
     </g>
     <g id="text_1">
      <!-- $\mathdefault{10^{0}}$ -->
      <g style="fill: #262626" transform="translate(109.998019 357.1525) scale(0.1 -0.1)">
       <defs>
        <path id="ArialMT-31" d="M 2384 0 
L 1822 0 
L 1822 3584 
Q 1619 3391 1289 3197 
Q 959 3003 697 2906 
L 697 3450 
Q 1169 3672 1522 3987 
Q 1875 4303 2022 4600 
L 2384 4600 
L 2384 0 
z
" transform="scale(0.015625)"/>
        <path id="ArialMT-30" d="M 266 2259 
Q 266 3072 433 3567 
Q 600 4063 929 4331 
Q 1259 4600 1759 4600 
Q 2128 4600 2406 4451 
Q 2684 4303 2865 4023 
Q 3047 3744 3150 3342 
Q 3253 2941 3253 2259 
Q 3253 1453 3087 958 
Q 2922 463 2592 192 
Q 2263 -78 1759 -78 
Q 1097 -78 719 397 
Q 266 969 266 2259 
z
M 844 2259 
Q 844 1131 1108 757 
Q 1372 384 1759 384 
Q 2147 384 2411 759 
Q 2675 1134 2675 2259 
Q 2675 3391 2411 3762 
Q 2147 4134 1753 4134 
Q 1366 4134 1134 3806 
Q 844 3388 844 2259 
z
" transform="scale(0.015625)"/>
       </defs>
       <use xlink:href="#ArialMT-31" transform="translate(0 0.99375)"/>
       <use xlink:href="#ArialMT-30" transform="translate(55.615234 0.99375)"/>
       <use xlink:href="#ArialMT-30" transform="translate(112.972813 70.6875) scale(0.7)"/>
      </g>
     </g>
    </g>
    <g id="xtick_2">
     <g id="line2d_2">
      <path d="M 225.466506 339.84 
L 225.466506 7.2 
" clip-path="url(#paec416974b)" style="fill: none; stroke: #cccccc; stroke-width: 0.8; stroke-linecap: round"/>
     </g>
     <g id="text_2">
      <!-- $\mathdefault{10^{1}}$ -->
      <g style="fill: #262626" transform="translate(217.616506 357.1525) scale(0.1 -0.1)">
       <use xlink:href="#ArialMT-31" transform="translate(0 0.99375)"/>
       <use xlink:href="#ArialMT-30" transform="translate(55.615234 0.99375)"/>
       <use xlink:href="#ArialMT-31" transform="translate(112.972813 70.6875) scale(0.7)"/>
      </g>
     </g>
    </g>
    <g id="xtick_3">
     <g id="line2d_3">
      <path d="M 333.084992 339.84 
L 333.084992 7.2 
" clip-path="url(#paec416974b)" style="fill: none; stroke: #cccccc; stroke-width: 0.8; stroke-linecap: round"/>
     </g>
     <g id="text_3">
      <!-- $\mathdefault{10^{2}}$ -->
      <g style="fill: #262626" transform="translate(325.234992 357.1525) scale(0.1 -0.1)">
       <defs>
        <path id="ArialMT-32" d="M 3222 541 
L 3222 0 
L 194 0 
Q 188 203 259 391 
Q 375 700 629 1000 
Q 884 1300 1366 1694 
Q 2113 2306 2375 2664 
Q 2638 3022 2638 3341 
Q 2638 3675 2398 3904 
Q 2159 4134 1775 4134 
Q 1369 4134 1125 3890 
Q 881 3647 878 3216 
L 300 3275 
Q 359 3922 746 4261 
Q 1134 4600 1788 4600 
Q 2447 4600 2831 4234 
Q 3216 3869 3216 3328 
Q 3216 3053 3103 2787 
Q 2991 2522 2730 2228 
Q 2469 1934 1863 1422 
Q 1356 997 1212 845 
Q 1069 694 975 541 
L 3222 541 
z
" transform="scale(0.015625)"/>
       </defs>
       <use xlink:href="#ArialMT-31" transform="translate(0 0.99375)"/>
       <use xlink:href="#ArialMT-30" transform="translate(55.615234 0.99375)"/>
       <use xlink:href="#ArialMT-32" transform="translate(112.972813 70.6875) scale(0.7)"/>
      </g>
     </g>
    </g>
    <g id="xtick_4">
     <g id="line2d_4">
      <path d="M 440.703479 339.84 
L 440.703479 7.2 
" clip-path="url(#paec416974b)" style="fill: none; stroke: #cccccc; stroke-width: 0.8; stroke-linecap: round"/>
     </g>
     <g id="text_4">
      <!-- $\mathdefault{10^{3}}$ -->
      <g style="fill: #262626" transform="translate(432.853479 357.1525) scale(0.1 -0.1)">
       <defs>
        <path id="ArialMT-33" d="M 269 1209 
L 831 1284 
Q 928 806 1161 595 
Q 1394 384 1728 384 
Q 2125 384 2398 659 
Q 2672 934 2672 1341 
Q 2672 1728 2419 1979 
Q 2166 2231 1775 2231 
Q 1616 2231 1378 2169 
L 1441 2663 
Q 1497 2656 1531 2656 
Q 1891 2656 2178 2843 
Q 2466 3031 2466 3422 
Q 2466 3731 2256 3934 
Q 2047 4138 1716 4138 
Q 1388 4138 1169 3931 
Q 950 3725 888 3313 
L 325 3413 
Q 428 3978 793 4289 
Q 1159 4600 1703 4600 
Q 2078 4600 2393 4439 
Q 2709 4278 2876 4000 
Q 3044 3722 3044 3409 
Q 3044 3113 2884 2869 
Q 2725 2625 2413 2481 
Q 2819 2388 3044 2092 
Q 3269 1797 3269 1353 
Q 3269 753 2831 336 
Q 2394 -81 1725 -81 
Q 1122 -81 723 278 
Q 325 638 269 1209 
z
" transform="scale(0.015625)"/>
       </defs>
       <use xlink:href="#ArialMT-31" transform="translate(0 0.99375)"/>
       <use xlink:href="#ArialMT-30" transform="translate(55.615234 0.99375)"/>
       <use xlink:href="#ArialMT-33" transform="translate(112.972813 70.6875) scale(0.7)"/>
      </g>
     </g>
    </g>
    <g id="xtick_5">
     <g id="line2d_5">
      <path d="M 548.321966 339.84 
L 548.321966 7.2 
" clip-path="url(#paec416974b)" style="fill: none; stroke: #cccccc; stroke-width: 0.8; stroke-linecap: round"/>
     </g>
     <g id="text_5">
      <!-- $\mathdefault{10^{4}}$ -->
      <g style="fill: #262626" transform="translate(540.471966 357.0525) scale(0.1 -0.1)">
       <defs>
        <path id="ArialMT-34" d="M 2069 0 
L 2069 1097 
L 81 1097 
L 81 1613 
L 2172 4581 
L 2631 4581 
L 2631 1613 
L 3250 1613 
L 3250 1097 
L 2631 1097 
L 2631 0 
L 2069 0 
z
M 2069 1613 
L 2069 3678 
L 634 1613 
L 2069 1613 
z
" transform="scale(0.015625)"/>
       </defs>
       <use xlink:href="#ArialMT-31" transform="translate(0 0.201563)"/>
       <use xlink:href="#ArialMT-30" transform="translate(55.615234 0.201563)"/>
       <use xlink:href="#ArialMT-34" transform="translate(112.972813 69.895313) scale(0.7)"/>
      </g>
     </g>
    </g>
    <g id="xtick_6"/>
    <g id="xtick_7"/>
    <g id="xtick_8"/>
    <g id="xtick_9"/>
    <g id="xtick_10"/>
    <g id="xtick_11"/>
    <g id="xtick_12"/>
    <g id="xtick_13"/>
    <g id="xtick_14"/>
    <g id="xtick_15"/>
    <g id="xtick_16"/>
    <g id="xtick_17"/>
    <g id="xtick_18"/>
    <g id="xtick_19"/>
    <g id="xtick_20"/>
    <g id="xtick_21"/>
    <g id="xtick_22"/>
    <g id="xtick_23"/>
    <g id="xtick_24"/>
    <g id="xtick_25"/>
    <g id="xtick_26"/>
    <g id="xtick_27"/>
    <g id="xtick_28"/>
    <g id="xtick_29"/>
    <g id="xtick_30"/>
    <g id="xtick_31"/>
    <g id="xtick_32"/>
    <g id="xtick_33"/>
    <g id="xtick_34"/>
    <g id="xtick_35"/>
    <g id="xtick_36"/>
    <g id="xtick_37"/>
    <g id="xtick_38"/>
    <g id="xtick_39"/>
    <g id="xtick_40"/>
    <g id="xtick_41"/>
    <g id="xtick_42"/>
    <g id="xtick_43"/>
    <g id="xtick_44"/>
    <g id="xtick_45"/>
    <g id="xtick_46"/>
    <g id="text_6">
     <!-- Localization Error (km) [Log Scale] -->
     <g style="fill: #262626" transform="translate(210.76625 373.331563) scale(0.14 -0.14)">
      <defs>
       <path id="Arial-BoldMT-4c" d="M 491 0 
L 491 4544 
L 1416 4544 
L 1416 772 
L 3716 772 
L 3716 0 
L 491 0 
z
" transform="scale(0.015625)"/>
       <path id="Arial-BoldMT-6f" d="M 256 1706 
Q 256 2144 472 2553 
Q 688 2963 1083 3178 
Q 1478 3394 1966 3394 
Q 2719 3394 3200 2905 
Q 3681 2416 3681 1669 
Q 3681 916 3195 420 
Q 2709 -75 1972 -75 
Q 1516 -75 1102 131 
Q 688 338 472 736 
Q 256 1134 256 1706 
z
M 1156 1659 
Q 1156 1166 1390 903 
Q 1625 641 1969 641 
Q 2313 641 2545 903 
Q 2778 1166 2778 1666 
Q 2778 2153 2545 2415 
Q 2313 2678 1969 2678 
Q 1625 2678 1390 2415 
Q 1156 2153 1156 1659 
z
" transform="scale(0.015625)"/>
       <path id="Arial-BoldMT-63" d="M 3353 2338 
L 2488 2181 
Q 2444 2441 2289 2572 
Q 2134 2703 1888 2703 
Q 1559 2703 1364 2476 
Q 1169 2250 1169 1719 
Q 1169 1128 1367 884 
Q 1566 641 1900 641 
Q 2150 641 2309 783 
Q 2469 925 2534 1272 
L 3397 1125 
Q 3263 531 2881 228 
Q 2500 -75 1859 -75 
Q 1131 -75 698 384 
Q 266 844 266 1656 
Q 266 2478 700 2936 
Q 1134 3394 1875 3394 
Q 2481 3394 2839 3133 
Q 3197 2872 3353 2338 
z
" transform="scale(0.015625)"/>
       <path id="Arial-BoldMT-61" d="M 1116 2306 
L 319 2450 
Q 453 2931 781 3162 
Q 1109 3394 1756 3394 
Q 2344 3394 2631 3255 
Q 2919 3116 3036 2902 
Q 3153 2688 3153 2116 
L 3144 1091 
Q 3144 653 3186 445 
Q 3228 238 3344 0 
L 2475 0 
Q 2441 88 2391 259 
Q 2369 338 2359 363 
Q 2134 144 1878 34 
Q 1622 -75 1331 -75 
Q 819 -75 523 203 
Q 228 481 228 906 
Q 228 1188 362 1408 
Q 497 1628 739 1745 
Q 981 1863 1438 1950 
Q 2053 2066 2291 2166 
L 2291 2253 
Q 2291 2506 2166 2614 
Q 2041 2722 1694 2722 
Q 1459 2722 1328 2630 
Q 1197 2538 1116 2306 
z
M 2291 1594 
Q 2122 1538 1756 1459 
Q 1391 1381 1278 1306 
Q 1106 1184 1106 997 
Q 1106 813 1243 678 
Q 1381 544 1594 544 
Q 1831 544 2047 700 
Q 2206 819 2256 991 
Q 2291 1103 2291 1419 
L 2291 1594 
z
" transform="scale(0.015625)"/>
       <path id="Arial-BoldMT-6c" d="M 459 0 
L 459 4581 
L 1338 4581 
L 1338 0 
L 459 0 
z
" transform="scale(0.015625)"/>
       <path id="Arial-BoldMT-69" d="M 459 3769 
L 459 4581 
L 1338 4581 
L 1338 3769 
L 459 3769 
z
M 459 0 
L 459 3319 
L 1338 3319 
L 1338 0 
L 459 0 
z
" transform="scale(0.015625)"/>
       <path id="Arial-BoldMT-7a" d="M 106 0 
L 106 684 
L 1350 2113 
Q 1656 2463 1803 2609 
Q 1650 2600 1400 2597 
L 228 2591 
L 228 3319 
L 2972 3319 
L 2972 2697 
L 1703 1234 
L 1256 750 
Q 1622 772 1709 772 
L 3069 772 
L 3069 0 
L 106 0 
z
" transform="scale(0.015625)"/>
       <path id="Arial-BoldMT-74" d="M 1981 3319 
L 1981 2619 
L 1381 2619 
L 1381 1281 
Q 1381 875 1398 808 
Q 1416 741 1477 697 
Q 1538 653 1625 653 
Q 1747 653 1978 738 
L 2053 56 
Q 1747 -75 1359 -75 
Q 1122 -75 931 4 
Q 741 84 652 211 
Q 563 338 528 553 
Q 500 706 500 1172 
L 500 2619 
L 97 2619 
L 97 3319 
L 500 3319 
L 500 3978 
L 1381 4491 
L 1381 3319 
L 1981 3319 
z
" transform="scale(0.015625)"/>
       <path id="Arial-BoldMT-6e" d="M 3478 0 
L 2600 0 
L 2600 1694 
Q 2600 2231 2544 2389 
Q 2488 2547 2361 2634 
Q 2234 2722 2056 2722 
Q 1828 2722 1647 2597 
Q 1466 2472 1398 2265 
Q 1331 2059 1331 1503 
L 1331 0 
L 453 0 
L 453 3319 
L 1269 3319 
L 1269 2831 
Q 1703 3394 2363 3394 
Q 2653 3394 2893 3289 
Q 3134 3184 3257 3021 
Q 3381 2859 3429 2653 
Q 3478 2447 3478 2063 
L 3478 0 
z
" transform="scale(0.015625)"/>
       <path id="Arial-BoldMT-20" transform="scale(0.015625)"/>
       <path id="Arial-BoldMT-45" d="M 466 0 
L 466 4581 
L 3863 4581 
L 3863 3806 
L 1391 3806 
L 1391 2791 
L 3691 2791 
L 3691 2019 
L 1391 2019 
L 1391 772 
L 3950 772 
L 3950 0 
L 466 0 
z
" transform="scale(0.015625)"/>
       <path id="Arial-BoldMT-72" d="M 1300 0 
L 422 0 
L 422 3319 
L 1238 3319 
L 1238 2847 
Q 1447 3181 1614 3287 
Q 1781 3394 1994 3394 
Q 2294 3394 2572 3228 
L 2300 2463 
Q 2078 2606 1888 2606 
Q 1703 2606 1575 2504 
Q 1447 2403 1373 2137 
Q 1300 1872 1300 1025 
L 1300 0 
z
" transform="scale(0.015625)"/>
       <path id="Arial-BoldMT-28" d="M 1916 -1347 
L 1313 -1347 
Q 834 -625 584 153 
Q 334 931 334 1659 
Q 334 2563 644 3369 
Q 913 4069 1325 4659 
L 1925 4659 
Q 1497 3713 1336 3048 
Q 1175 2384 1175 1641 
Q 1175 1128 1270 590 
Q 1366 53 1531 -431 
Q 1641 -750 1916 -1347 
z
" transform="scale(0.015625)"/>
       <path id="Arial-BoldMT-6b" d="M 428 0 
L 428 4581 
L 1306 4581 
L 1306 2150 
L 2334 3319 
L 3416 3319 
L 2281 2106 
L 3497 0 
L 2550 0 
L 1716 1491 
L 1306 1063 
L 1306 0 
L 428 0 
z
" transform="scale(0.015625)"/>
       <path id="Arial-BoldMT-6d" d="M 394 3319 
L 1203 3319 
L 1203 2866 
Q 1638 3394 2238 3394 
Q 2556 3394 2790 3262 
Q 3025 3131 3175 2866 
Q 3394 3131 3647 3262 
Q 3900 3394 4188 3394 
Q 4553 3394 4806 3245 
Q 5059 3097 5184 2809 
Q 5275 2597 5275 2122 
L 5275 0 
L 4397 0 
L 4397 1897 
Q 4397 2391 4306 2534 
Q 4184 2722 3931 2722 
Q 3747 2722 3584 2609 
Q 3422 2497 3350 2280 
Q 3278 2063 3278 1594 
L 3278 0 
L 2400 0 
L 2400 1819 
Q 2400 2303 2353 2443 
Q 2306 2584 2207 2653 
Q 2109 2722 1941 2722 
Q 1738 2722 1575 2612 
Q 1413 2503 1342 2297 
Q 1272 2091 1272 1613 
L 1272 0 
L 394 0 
L 394 3319 
z
" transform="scale(0.015625)"/>
       <path id="Arial-BoldMT-29" d="M 216 -1347 
Q 475 -791 581 -494 
Q 688 -197 778 190 
Q 869 578 912 926 
Q 956 1275 956 1641 
Q 956 2384 797 3048 
Q 638 3713 209 4659 
L 806 4659 
Q 1278 3988 1539 3234 
Q 1800 2481 1800 1706 
Q 1800 1053 1594 306 
Q 1359 -531 822 -1347 
L 216 -1347 
z
" transform="scale(0.015625)"/>
       <path id="Arial-BoldMT-5b" d="M 456 -1291 
L 456 4581 
L 2013 4581 
L 2013 3891 
L 1291 3891 
L 1291 -600 
L 2013 -600 
L 2013 -1291 
L 456 -1291 
z
" transform="scale(0.015625)"/>
       <path id="Arial-BoldMT-67" d="M 378 -219 
L 1381 -341 
Q 1406 -516 1497 -581 
Q 1622 -675 1891 -675 
Q 2234 -675 2406 -572 
Q 2522 -503 2581 -350 
Q 2622 -241 2622 53 
L 2622 538 
Q 2228 0 1628 0 
Q 959 0 569 566 
Q 263 1013 263 1678 
Q 263 2513 664 2953 
Q 1066 3394 1663 3394 
Q 2278 3394 2678 2853 
L 2678 3319 
L 3500 3319 
L 3500 341 
Q 3500 -247 3403 -537 
Q 3306 -828 3131 -993 
Q 2956 -1159 2664 -1253 
Q 2372 -1347 1925 -1347 
Q 1081 -1347 728 -1058 
Q 375 -769 375 -325 
Q 375 -281 378 -219 
z
M 1163 1728 
Q 1163 1200 1367 954 
Q 1572 709 1872 709 
Q 2194 709 2416 961 
Q 2638 1213 2638 1706 
Q 2638 2222 2425 2472 
Q 2213 2722 1888 2722 
Q 1572 2722 1367 2476 
Q 1163 2231 1163 1728 
z
" transform="scale(0.015625)"/>
       <path id="Arial-BoldMT-53" d="M 231 1491 
L 1131 1578 
Q 1213 1125 1461 912 
Q 1709 700 2131 700 
Q 2578 700 2804 889 
Q 3031 1078 3031 1331 
Q 3031 1494 2936 1608 
Q 2841 1722 2603 1806 
Q 2441 1863 1863 2006 
Q 1119 2191 819 2459 
Q 397 2838 397 3381 
Q 397 3731 595 4036 
Q 794 4341 1167 4500 
Q 1541 4659 2069 4659 
Q 2931 4659 3367 4281 
Q 3803 3903 3825 3272 
L 2900 3231 
Q 2841 3584 2645 3739 
Q 2450 3894 2059 3894 
Q 1656 3894 1428 3728 
Q 1281 3622 1281 3444 
Q 1281 3281 1419 3166 
Q 1594 3019 2269 2859 
Q 2944 2700 3267 2529 
Q 3591 2359 3773 2064 
Q 3956 1769 3956 1334 
Q 3956 941 3737 597 
Q 3519 253 3119 86 
Q 2719 -81 2122 -81 
Q 1253 -81 787 320 
Q 322 722 231 1491 
z
" transform="scale(0.015625)"/>
       <path id="Arial-BoldMT-65" d="M 2381 1056 
L 3256 909 
Q 3088 428 2723 176 
Q 2359 -75 1813 -75 
Q 947 -75 531 491 
Q 203 944 203 1634 
Q 203 2459 634 2926 
Q 1066 3394 1725 3394 
Q 2466 3394 2894 2905 
Q 3322 2416 3303 1406 
L 1103 1406 
Q 1113 1016 1316 798 
Q 1519 581 1822 581 
Q 2028 581 2168 693 
Q 2309 806 2381 1056 
z
M 2431 1944 
Q 2422 2325 2234 2523 
Q 2047 2722 1778 2722 
Q 1491 2722 1303 2513 
Q 1116 2303 1119 1944 
L 2431 1944 
z
" transform="scale(0.015625)"/>
       <path id="Arial-BoldMT-5d" d="M 1675 4581 
L 1675 -1291 
L 119 -1291 
L 119 -600 
L 841 -600 
L 841 3897 
L 119 3897 
L 119 4581 
L 1675 4581 
z
" transform="scale(0.015625)"/>
      </defs>
      <use xlink:href="#Arial-BoldMT-4c"/>
      <use xlink:href="#Arial-BoldMT-6f" transform="translate(61.083984 0)"/>
      <use xlink:href="#Arial-BoldMT-63" transform="translate(122.167969 0)"/>
      <use xlink:href="#Arial-BoldMT-61" transform="translate(177.783203 0)"/>
      <use xlink:href="#Arial-BoldMT-6c" transform="translate(233.398438 0)"/>
      <use xlink:href="#Arial-BoldMT-69" transform="translate(261.181641 0)"/>
      <use xlink:href="#Arial-BoldMT-7a" transform="translate(288.964844 0)"/>
      <use xlink:href="#Arial-BoldMT-61" transform="translate(338.964844 0)"/>
      <use xlink:href="#Arial-BoldMT-74" transform="translate(394.580078 0)"/>
      <use xlink:href="#Arial-BoldMT-69" transform="translate(427.880859 0)"/>
      <use xlink:href="#Arial-BoldMT-6f" transform="translate(455.664062 0)"/>
      <use xlink:href="#Arial-BoldMT-6e" transform="translate(516.748047 0)"/>
      <use xlink:href="#Arial-BoldMT-20" transform="translate(577.832031 0)"/>
      <use xlink:href="#Arial-BoldMT-45" transform="translate(605.615234 0)"/>
      <use xlink:href="#Arial-BoldMT-72" transform="translate(672.314453 0)"/>
      <use xlink:href="#Arial-BoldMT-72" transform="translate(711.230469 0)"/>
      <use xlink:href="#Arial-BoldMT-6f" transform="translate(750.146484 0)"/>
      <use xlink:href="#Arial-BoldMT-72" transform="translate(811.230469 0)"/>
      <use xlink:href="#Arial-BoldMT-20" transform="translate(850.146484 0)"/>
      <use xlink:href="#Arial-BoldMT-28" transform="translate(877.929688 0)"/>
      <use xlink:href="#Arial-BoldMT-6b" transform="translate(911.230469 0)"/>
      <use xlink:href="#Arial-BoldMT-6d" transform="translate(966.845703 0)"/>
      <use xlink:href="#Arial-BoldMT-29" transform="translate(1055.761719 0)"/>
      <use xlink:href="#Arial-BoldMT-20" transform="translate(1089.0625 0)"/>
      <use xlink:href="#Arial-BoldMT-5b" transform="translate(1116.845703 0)"/>
      <use xlink:href="#Arial-BoldMT-4c" transform="translate(1150.146484 0)"/>
      <use xlink:href="#Arial-BoldMT-6f" transform="translate(1211.230469 0)"/>
      <use xlink:href="#Arial-BoldMT-67" transform="translate(1272.314453 0)"/>
      <use xlink:href="#Arial-BoldMT-20" transform="translate(1333.398438 0)"/>
      <use xlink:href="#Arial-BoldMT-53" transform="translate(1361.181641 0)"/>
      <use xlink:href="#Arial-BoldMT-63" transform="translate(1427.880859 0)"/>
      <use xlink:href="#Arial-BoldMT-61" transform="translate(1483.496094 0)"/>
      <use xlink:href="#Arial-BoldMT-6c" transform="translate(1539.111328 0)"/>
      <use xlink:href="#Arial-BoldMT-65" transform="translate(1566.894531 0)"/>
      <use xlink:href="#Arial-BoldMT-5d" transform="translate(1622.509766 0)"/>
     </g>
    </g>
   </g>
   <g id="matplotlib.axis_2">
    <g id="ytick_1">
     <g id="line2d_6">
      <path d="M 47.666563 339.84 
L 605.666563 339.84 
" clip-path="url(#paec416974b)" style="fill: none; stroke: #cccccc; stroke-width: 0.8; stroke-linecap: round"/>
     </g>
     <g id="text_7">
      <!-- 0 -->
      <g style="fill: #262626" transform="translate(35.105625 343.418906) scale(0.1 -0.1)">
       <use xlink:href="#ArialMT-30"/>
      </g>
     </g>
    </g>
    <g id="ytick_2">
     <g id="line2d_7">
      <path d="M 47.666563 287.476364 
L 605.666563 287.476364 
" clip-path="url(#paec416974b)" style="fill: none; stroke: #cccccc; stroke-width: 0.8; stroke-linecap: round"/>
     </g>
     <g id="text_8">
      <!-- 20 -->
      <g style="fill: #262626" transform="translate(29.544688 291.05527) scale(0.1 -0.1)">
       <use xlink:href="#ArialMT-32"/>
       <use xlink:href="#ArialMT-30" transform="translate(55.615234 0)"/>
      </g>
     </g>
    </g>
    <g id="ytick_3">
     <g id="line2d_8">
      <path d="M 47.666563 235.112727 
L 605.666563 235.112727 
" clip-path="url(#paec416974b)" style="fill: none; stroke: #cccccc; stroke-width: 0.8; stroke-linecap: round"/>
     </g>
     <g id="text_9">
      <!-- 40 -->
      <g style="fill: #262626" transform="translate(29.544688 238.691634) scale(0.1 -0.1)">
       <use xlink:href="#ArialMT-34"/>
       <use xlink:href="#ArialMT-30" transform="translate(55.615234 0)"/>
      </g>
     </g>
    </g>
    <g id="ytick_4">
     <g id="line2d_9">
      <path d="M 47.666563 182.749091 
L 605.666563 182.749091 
" clip-path="url(#paec416974b)" style="fill: none; stroke: #cccccc; stroke-width: 0.8; stroke-linecap: round"/>
     </g>
     <g id="text_10">
      <!-- 60 -->
      <g style="fill: #262626" transform="translate(29.544688 186.327997) scale(0.1 -0.1)">
       <defs>
        <path id="ArialMT-36" d="M 3184 3459 
L 2625 3416 
Q 2550 3747 2413 3897 
Q 2184 4138 1850 4138 
Q 1581 4138 1378 3988 
Q 1113 3794 959 3422 
Q 806 3050 800 2363 
Q 1003 2672 1297 2822 
Q 1591 2972 1913 2972 
Q 2475 2972 2870 2558 
Q 3266 2144 3266 1488 
Q 3266 1056 3080 686 
Q 2894 316 2569 119 
Q 2244 -78 1831 -78 
Q 1128 -78 684 439 
Q 241 956 241 2144 
Q 241 3472 731 4075 
Q 1159 4600 1884 4600 
Q 2425 4600 2770 4297 
Q 3116 3994 3184 3459 
z
M 888 1484 
Q 888 1194 1011 928 
Q 1134 663 1356 523 
Q 1578 384 1822 384 
Q 2178 384 2434 671 
Q 2691 959 2691 1453 
Q 2691 1928 2437 2201 
Q 2184 2475 1800 2475 
Q 1419 2475 1153 2201 
Q 888 1928 888 1484 
z
" transform="scale(0.015625)"/>
       </defs>
       <use xlink:href="#ArialMT-36"/>
       <use xlink:href="#ArialMT-30" transform="translate(55.615234 0)"/>
      </g>
     </g>
    </g>
    <g id="ytick_5">
     <g id="line2d_10">
      <path d="M 47.666563 130.385455 
L 605.666563 130.385455 
" clip-path="url(#paec416974b)" style="fill: none; stroke: #cccccc; stroke-width: 0.8; stroke-linecap: round"/>
     </g>
     <g id="text_11">
      <!-- 80 -->
      <g style="fill: #262626" transform="translate(29.544688 133.964361) scale(0.1 -0.1)">
       <defs>
        <path id="ArialMT-38" d="M 1131 2484 
Q 781 2613 612 2850 
Q 444 3088 444 3419 
Q 444 3919 803 4259 
Q 1163 4600 1759 4600 
Q 2359 4600 2725 4251 
Q 3091 3903 3091 3403 
Q 3091 3084 2923 2848 
Q 2756 2613 2416 2484 
Q 2838 2347 3058 2040 
Q 3278 1734 3278 1309 
Q 3278 722 2862 322 
Q 2447 -78 1769 -78 
Q 1091 -78 675 323 
Q 259 725 259 1325 
Q 259 1772 486 2073 
Q 713 2375 1131 2484 
z
M 1019 3438 
Q 1019 3113 1228 2906 
Q 1438 2700 1772 2700 
Q 2097 2700 2305 2904 
Q 2513 3109 2513 3406 
Q 2513 3716 2298 3927 
Q 2084 4138 1766 4138 
Q 1444 4138 1231 3931 
Q 1019 3725 1019 3438 
z
M 838 1322 
Q 838 1081 952 856 
Q 1066 631 1291 507 
Q 1516 384 1775 384 
Q 2178 384 2440 643 
Q 2703 903 2703 1303 
Q 2703 1709 2433 1975 
Q 2163 2241 1756 2241 
Q 1359 2241 1098 1978 
Q 838 1716 838 1322 
z
" transform="scale(0.015625)"/>
       </defs>
       <use xlink:href="#ArialMT-38"/>
       <use xlink:href="#ArialMT-30" transform="translate(55.615234 0)"/>
      </g>
     </g>
    </g>
    <g id="ytick_6">
     <g id="line2d_11">
      <path d="M 47.666563 78.021818 
L 605.666563 78.021818 
" clip-path="url(#paec416974b)" style="fill: none; stroke: #cccccc; stroke-width: 0.8; stroke-linecap: round"/>
     </g>
     <g id="text_12">
      <!-- 100 -->
      <g style="fill: #262626" transform="translate(23.98375 81.600724) scale(0.1 -0.1)">
       <use xlink:href="#ArialMT-31"/>
       <use xlink:href="#ArialMT-30" transform="translate(55.615234 0)"/>
       <use xlink:href="#ArialMT-30" transform="translate(111.230469 0)"/>
      </g>
     </g>
    </g>
    <g id="ytick_7">
     <g id="line2d_12">
      <path d="M 47.666563 25.658182 
L 605.666563 25.658182 
" clip-path="url(#paec416974b)" style="fill: none; stroke: #cccccc; stroke-width: 0.8; stroke-linecap: round"/>
     </g>
     <g id="text_13">
      <!-- 120 -->
      <g style="fill: #262626" transform="translate(23.98375 29.237088) scale(0.1 -0.1)">
       <use xlink:href="#ArialMT-31"/>
       <use xlink:href="#ArialMT-32" transform="translate(55.615234 0)"/>
       <use xlink:href="#ArialMT-30" transform="translate(111.230469 0)"/>
      </g>
     </g>
    </g>
    <g id="text_14">
     <!-- Count -->
     <g style="fill: #262626" transform="translate(17.220938 193.7325) rotate(-90) scale(0.14 -0.14)">
      <defs>
       <path id="Arial-BoldMT-43" d="M 3397 1684 
L 4294 1400 
Q 4088 650 3608 286 
Q 3128 -78 2391 -78 
Q 1478 -78 890 545 
Q 303 1169 303 2250 
Q 303 3394 893 4026 
Q 1484 4659 2447 4659 
Q 3288 4659 3813 4163 
Q 4125 3869 4281 3319 
L 3366 3100 
Q 3284 3456 3026 3662 
Q 2769 3869 2400 3869 
Q 1891 3869 1573 3503 
Q 1256 3138 1256 2319 
Q 1256 1450 1568 1081 
Q 1881 713 2381 713 
Q 2750 713 3015 947 
Q 3281 1181 3397 1684 
z
" transform="scale(0.015625)"/>
       <path id="Arial-BoldMT-75" d="M 2644 0 
L 2644 497 
Q 2463 231 2167 78 
Q 1872 -75 1544 -75 
Q 1209 -75 943 72 
Q 678 219 559 484 
Q 441 750 441 1219 
L 441 3319 
L 1319 3319 
L 1319 1794 
Q 1319 1094 1367 936 
Q 1416 778 1544 686 
Q 1672 594 1869 594 
Q 2094 594 2272 717 
Q 2450 841 2515 1023 
Q 2581 1206 2581 1919 
L 2581 3319 
L 3459 3319 
L 3459 0 
L 2644 0 
z
" transform="scale(0.015625)"/>
      </defs>
      <use xlink:href="#Arial-BoldMT-43"/>
      <use xlink:href="#Arial-BoldMT-6f" transform="translate(72.216797 0)"/>
      <use xlink:href="#Arial-BoldMT-75" transform="translate(133.300781 0)"/>
      <use xlink:href="#Arial-BoldMT-6e" transform="translate(194.384766 0)"/>
      <use xlink:href="#Arial-BoldMT-74" transform="translate(255.46875 0)"/>
     </g>
    </g>
   </g>
   <g id="patch_3">
    <path d="M 73.030199 339.84 
L 83.175653 339.84 
L 83.175653 337.221818 
L 73.030199 337.221818 
z
" clip-path="url(#paec416974b)" style="fill: #800080; fill-opacity: 0.5; stroke: #ffffff; stroke-linejoin: miter"/>
   </g>
   <g id="patch_4">
    <path d="M 83.175653 339.84 
L 93.321108 339.84 
L 93.321108 334.603636 
L 83.175653 334.603636 
z
" clip-path="url(#paec416974b)" style="fill: #800080; fill-opacity: 0.5; stroke: #ffffff; stroke-linejoin: miter"/>
   </g>
   <g id="patch_5">
    <path d="M 93.321108 339.84 
L 103.466563 339.84 
L 103.466563 326.749091 
L 93.321108 326.749091 
z
" clip-path="url(#paec416974b)" style="fill: #800080; fill-opacity: 0.5; stroke: #ffffff; stroke-linejoin: miter"/>
   </g>
   <g id="patch_6">
    <path d="M 103.466563 339.84 
L 113.612017 339.84 
L 113.612017 326.749091 
L 103.466563 326.749091 
z
" clip-path="url(#paec416974b)" style="fill: #800080; fill-opacity: 0.5; stroke: #ffffff; stroke-linejoin: miter"/>
   </g>
   <g id="patch_7">
    <path d="M 113.612017 339.84 
L 123.757472 339.84 
L 123.757472 329.367273 
L 113.612017 329.367273 
z
" clip-path="url(#paec416974b)" style="fill: #800080; fill-opacity: 0.5; stroke: #ffffff; stroke-linejoin: miter"/>
   </g>
   <g id="patch_8">
    <path d="M 123.757472 339.84 
L 133.902926 339.84 
L 133.902926 300.567273 
L 123.757472 300.567273 
z
" clip-path="url(#paec416974b)" style="fill: #800080; fill-opacity: 0.5; stroke: #ffffff; stroke-linejoin: miter"/>
   </g>
   <g id="patch_9">
    <path d="M 133.902926 339.84 
L 144.048381 339.84 
L 144.048381 297.949091 
L 133.902926 297.949091 
z
" clip-path="url(#paec416974b)" style="fill: #800080; fill-opacity: 0.5; stroke: #ffffff; stroke-linejoin: miter"/>
   </g>
   <g id="patch_10">
    <path d="M 144.048381 339.84 
L 154.193835 339.84 
L 154.193835 295.330909 
L 144.048381 295.330909 
z
" clip-path="url(#paec416974b)" style="fill: #800080; fill-opacity: 0.5; stroke: #ffffff; stroke-linejoin: miter"/>
   </g>
   <g id="patch_11">
    <path d="M 154.193835 339.84 
L 164.33929 339.84 
L 164.33929 303.185455 
L 154.193835 303.185455 
z
" clip-path="url(#paec416974b)" style="fill: #800080; fill-opacity: 0.5; stroke: #ffffff; stroke-linejoin: miter"/>
   </g>
   <g id="patch_12">
    <path d="M 164.33929 339.84 
L 174.484744 339.84 
L 174.484744 287.476364 
L 164.33929 287.476364 
z
" clip-path="url(#paec416974b)" style="fill: #800080; fill-opacity: 0.5; stroke: #ffffff; stroke-linejoin: miter"/>
   </g>
   <g id="patch_13">
    <path d="M 174.484744 339.84 
L 184.630199 339.84 
L 184.630199 214.167273 
L 174.484744 214.167273 
z
" clip-path="url(#paec416974b)" style="fill: #800080; fill-opacity: 0.5; stroke: #ffffff; stroke-linejoin: miter"/>
   </g>
   <g id="patch_14">
    <path d="M 184.630199 339.84 
L 194.775653 339.84 
L 194.775653 256.058182 
L 184.630199 256.058182 
z
" clip-path="url(#paec416974b)" style="fill: #800080; fill-opacity: 0.5; stroke: #ffffff; stroke-linejoin: miter"/>
   </g>
   <g id="patch_15">
    <path d="M 194.775653 339.84 
L 204.921108 339.84 
L 204.921108 172.276364 
L 194.775653 172.276364 
z
" clip-path="url(#paec416974b)" style="fill: #800080; fill-opacity: 0.5; stroke: #ffffff; stroke-linejoin: miter"/>
   </g>
   <g id="patch_16">
    <path d="M 204.921108 339.84 
L 215.066563 339.84 
L 215.066563 208.930909 
L 204.921108 208.930909 
z
" clip-path="url(#paec416974b)" style="fill: #800080; fill-opacity: 0.5; stroke: #ffffff; stroke-linejoin: miter"/>
   </g>
   <g id="patch_17">
    <path d="M 215.066563 339.84 
L 225.212017 339.84 
L 225.212017 164.421818 
L 215.066563 164.421818 
z
" clip-path="url(#paec416974b)" style="fill: #800080; fill-opacity: 0.5; stroke: #ffffff; stroke-linejoin: miter"/>
   </g>
   <g id="patch_18">
    <path d="M 225.212017 339.84 
L 235.357472 339.84 
L 235.357472 143.476364 
L 225.212017 143.476364 
z
" clip-path="url(#paec416974b)" style="fill: #800080; fill-opacity: 0.5; stroke: #ffffff; stroke-linejoin: miter"/>
   </g>
   <g id="patch_19">
    <path d="M 235.357472 339.84 
L 245.502926 339.84 
L 245.502926 130.385455 
L 235.357472 130.385455 
z
" clip-path="url(#paec416974b)" style="fill: #800080; fill-opacity: 0.5; stroke: #ffffff; stroke-linejoin: miter"/>
   </g>
   <g id="patch_20">
    <path d="M 245.502926 339.84 
L 255.648381 339.84 
L 255.648381 161.803636 
L 245.502926 161.803636 
z
" clip-path="url(#paec416974b)" style="fill: #800080; fill-opacity: 0.5; stroke: #ffffff; stroke-linejoin: miter"/>
   </g>
   <g id="patch_21">
    <path d="M 255.648381 339.84 
L 265.793835 339.84 
L 265.793835 104.203636 
L 255.648381 104.203636 
z
" clip-path="url(#paec416974b)" style="fill: #800080; fill-opacity: 0.5; stroke: #ffffff; stroke-linejoin: miter"/>
   </g>
   <g id="patch_22">
    <path d="M 265.793835 339.84 
L 275.93929 339.84 
L 275.93929 172.276364 
L 265.793835 172.276364 
z
" clip-path="url(#paec416974b)" style="fill: #800080; fill-opacity: 0.5; stroke: #ffffff; stroke-linejoin: miter"/>
   </g>
   <g id="patch_23">
    <path d="M 275.93929 339.84 
L 286.084744 339.84 
L 286.084744 187.985455 
L 275.93929 187.985455 
z
" clip-path="url(#paec416974b)" style="fill: #800080; fill-opacity: 0.5; stroke: #ffffff; stroke-linejoin: miter"/>
   </g>
   <g id="patch_24">
    <path d="M 286.084744 339.84 
L 296.230199 339.84 
L 296.230199 219.403636 
L 286.084744 219.403636 
z
" clip-path="url(#paec416974b)" style="fill: #800080; fill-opacity: 0.5; stroke: #ffffff; stroke-linejoin: miter"/>
   </g>
   <g id="patch_25">
    <path d="M 296.230199 339.84 
L 306.375653 339.84 
L 306.375653 216.785455 
L 296.230199 216.785455 
z
" clip-path="url(#paec416974b)" style="fill: #800080; fill-opacity: 0.5; stroke: #ffffff; stroke-linejoin: miter"/>
   </g>
   <g id="patch_26">
    <path d="M 306.375653 339.84 
L 316.521108 339.84 
L 316.521108 193.221818 
L 306.375653 193.221818 
z
" clip-path="url(#paec416974b)" style="fill: #800080; fill-opacity: 0.5; stroke: #ffffff; stroke-linejoin: miter"/>
   </g>
   <g id="patch_27">
    <path d="M 316.521108 339.84 
L 326.666563 339.84 
L 326.666563 182.749091 
L 316.521108 182.749091 
z
" clip-path="url(#paec416974b)" style="fill: #800080; fill-opacity: 0.5; stroke: #ffffff; stroke-linejoin: miter"/>
   </g>
   <g id="patch_28">
    <path d="M 326.666563 339.84 
L 336.812017 339.84 
L 336.812017 143.476364 
L 326.666563 143.476364 
z
" clip-path="url(#paec416974b)" style="fill: #800080; fill-opacity: 0.5; stroke: #ffffff; stroke-linejoin: miter"/>
   </g>
   <g id="patch_29">
    <path d="M 336.812017 339.84 
L 346.957472 339.84 
L 346.957472 119.912727 
L 336.812017 119.912727 
z
" clip-path="url(#paec416974b)" style="fill: #800080; fill-opacity: 0.5; stroke: #ffffff; stroke-linejoin: miter"/>
   </g>
   <g id="patch_30">
    <path d="M 346.957472 339.84 
L 357.102926 339.84 
L 357.102926 138.24 
L 346.957472 138.24 
z
" clip-path="url(#paec416974b)" style="fill: #800080; fill-opacity: 0.5; stroke: #ffffff; stroke-linejoin: miter"/>
   </g>
   <g id="patch_31">
    <path d="M 357.102926 339.84 
L 367.248381 339.84 
L 367.248381 106.821818 
L 357.102926 106.821818 
z
" clip-path="url(#paec416974b)" style="fill: #800080; fill-opacity: 0.5; stroke: #ffffff; stroke-linejoin: miter"/>
   </g>
   <g id="patch_32">
    <path d="M 367.248381 339.84 
L 377.393835 339.84 
L 377.393835 49.221818 
L 367.248381 49.221818 
z
" clip-path="url(#paec416974b)" style="fill: #800080; fill-opacity: 0.5; stroke: #ffffff; stroke-linejoin: miter"/>
   </g>
   <g id="patch_33">
    <path d="M 377.393835 339.84 
L 387.53929 339.84 
L 387.53929 43.985455 
L 377.393835 43.985455 
z
" clip-path="url(#paec416974b)" style="fill: #800080; fill-opacity: 0.5; stroke: #ffffff; stroke-linejoin: miter"/>
   </g>
   <g id="patch_34">
    <path d="M 387.53929 339.84 
L 397.684744 339.84 
L 397.684744 62.312727 
L 387.53929 62.312727 
z
" clip-path="url(#paec416974b)" style="fill: #800080; fill-opacity: 0.5; stroke: #ffffff; stroke-linejoin: miter"/>
   </g>
   <g id="patch_35">
    <path d="M 397.684744 339.84 
L 407.830199 339.84 
L 407.830199 80.64 
L 397.684744 80.64 
z
" clip-path="url(#paec416974b)" style="fill: #800080; fill-opacity: 0.5; stroke: #ffffff; stroke-linejoin: miter"/>
   </g>
   <g id="patch_36">
    <path d="M 407.830199 339.84 
L 417.975653 339.84 
L 417.975653 59.694545 
L 407.830199 59.694545 
z
" clip-path="url(#paec416974b)" style="fill: #800080; fill-opacity: 0.5; stroke: #ffffff; stroke-linejoin: miter"/>
   </g>
   <g id="patch_37">
    <path d="M 417.975653 339.84 
L 428.121108 339.84 
L 428.121108 88.494545 
L 417.975653 88.494545 
z
" clip-path="url(#paec416974b)" style="fill: #800080; fill-opacity: 0.5; stroke: #ffffff; stroke-linejoin: miter"/>
   </g>
   <g id="patch_38">
    <path d="M 428.121108 339.84 
L 438.266562 339.84 
L 438.266562 23.04 
L 428.121108 23.04 
z
" clip-path="url(#paec416974b)" style="fill: #800080; fill-opacity: 0.5; stroke: #ffffff; stroke-linejoin: miter"/>
   </g>
   <g id="patch_39">
    <path d="M 438.266563 339.84 
L 448.412017 339.84 
L 448.412017 49.221818 
L 438.266563 49.221818 
z
" clip-path="url(#paec416974b)" style="fill: #800080; fill-opacity: 0.5; stroke: #ffffff; stroke-linejoin: miter"/>
   </g>
   <g id="patch_40">
    <path d="M 448.412017 339.84 
L 458.557472 339.84 
L 458.557472 96.349091 
L 448.412017 96.349091 
z
" clip-path="url(#paec416974b)" style="fill: #800080; fill-opacity: 0.5; stroke: #ffffff; stroke-linejoin: miter"/>
   </g>
   <g id="patch_41">
    <path d="M 458.557472 339.84 
L 468.702926 339.84 
L 468.702926 98.967273 
L 458.557472 98.967273 
z
" clip-path="url(#paec416974b)" style="fill: #800080; fill-opacity: 0.5; stroke: #ffffff; stroke-linejoin: miter"/>
   </g>
   <g id="patch_42">
    <path d="M 468.702926 339.84 
L 478.848381 339.84 
L 478.848381 167.04 
L 468.702926 167.04 
z
" clip-path="url(#paec416974b)" style="fill: #800080; fill-opacity: 0.5; stroke: #ffffff; stroke-linejoin: miter"/>
   </g>
   <g id="patch_43">
    <path d="M 478.848381 339.84 
L 488.993835 339.84 
L 488.993835 201.076364 
L 478.848381 201.076364 
z
" clip-path="url(#paec416974b)" style="fill: #800080; fill-opacity: 0.5; stroke: #ffffff; stroke-linejoin: miter"/>
   </g>
   <g id="patch_44">
    <path d="M 488.993835 339.84 
L 499.13929 339.84 
L 499.13929 242.967273 
L 488.993835 242.967273 
z
" clip-path="url(#paec416974b)" style="fill: #800080; fill-opacity: 0.5; stroke: #ffffff; stroke-linejoin: miter"/>
   </g>
   <g id="patch_45">
    <path d="M 499.13929 339.84 
L 509.284744 339.84 
L 509.284744 240.349091 
L 499.13929 240.349091 
z
" clip-path="url(#paec416974b)" style="fill: #800080; fill-opacity: 0.5; stroke: #ffffff; stroke-linejoin: miter"/>
   </g>
   <g id="patch_46">
    <path d="M 509.284744 339.84 
L 519.430199 339.84 
L 519.430199 271.767273 
L 509.284744 271.767273 
z
" clip-path="url(#paec416974b)" style="fill: #800080; fill-opacity: 0.5; stroke: #ffffff; stroke-linejoin: miter"/>
   </g>
   <g id="patch_47">
    <path d="M 519.430199 339.84 
L 529.575653 339.84 
L 529.575653 185.367273 
L 519.430199 185.367273 
z
" clip-path="url(#paec416974b)" style="fill: #800080; fill-opacity: 0.5; stroke: #ffffff; stroke-linejoin: miter"/>
   </g>
   <g id="patch_48">
    <path d="M 529.575653 339.84 
L 539.721108 339.84 
L 539.721108 146.094545 
L 529.575653 146.094545 
z
" clip-path="url(#paec416974b)" style="fill: #800080; fill-opacity: 0.5; stroke: #ffffff; stroke-linejoin: miter"/>
   </g>
   <g id="patch_49">
    <path d="M 539.721108 339.84 
L 549.866563 339.84 
L 549.866563 49.221818 
L 539.721108 49.221818 
z
" clip-path="url(#paec416974b)" style="fill: #800080; fill-opacity: 0.5; stroke: #ffffff; stroke-linejoin: miter"/>
   </g>
   <g id="patch_50">
    <path d="M 549.866563 339.84 
L 560.012017 339.84 
L 560.012017 206.312727 
L 549.866563 206.312727 
z
" clip-path="url(#paec416974b)" style="fill: #800080; fill-opacity: 0.5; stroke: #ffffff; stroke-linejoin: miter"/>
   </g>
   <g id="patch_51">
    <path d="M 560.012017 339.84 
L 570.157472 339.84 
L 570.157472 201.076364 
L 560.012017 201.076364 
z
" clip-path="url(#paec416974b)" style="fill: #800080; fill-opacity: 0.5; stroke: #ffffff; stroke-linejoin: miter"/>
   </g>
   <g id="patch_52">
    <path d="M 570.157472 339.84 
L 580.302926 339.84 
L 580.302926 206.312727 
L 570.157472 206.312727 
z
" clip-path="url(#paec416974b)" style="fill: #800080; fill-opacity: 0.5; stroke: #ffffff; stroke-linejoin: miter"/>
   </g>
   <g id="line2d_13">
    <path d="M 73.030199 336.045884 
L 78.128417 334.894915 
L 83.226636 333.516564 
L 88.324854 331.892528 
L 93.423072 330.00644 
L 98.521291 327.845265 
L 103.619509 325.40163 
L 108.717727 322.676171 
L 113.815946 319.678151 
L 118.914164 316.422398 
L 124.012383 312.921515 
L 129.110601 309.174356 
L 134.208819 305.154117 
L 139.307038 300.800976 
L 144.405256 296.023853 
L 149.503474 290.713348 
L 152.052584 287.824232 
L 154.601693 284.763919 
L 157.150802 281.52406 
L 162.24902 274.489249 
L 167.347239 266.725727 
L 172.445457 258.302169 
L 177.543675 249.340798 
L 185.191003 235.237175 
L 200.485658 206.658664 
L 205.583876 197.541327 
L 210.682095 188.839862 
L 215.780313 180.692148 
L 218.329422 176.874941 
L 220.878531 173.258117 
L 223.427641 169.865487 
L 225.97675 166.722011 
L 228.525859 163.85334 
L 231.074968 161.285204 
L 233.624077 159.042677 
L 236.173187 157.149315 
L 238.722296 155.626219 
L 241.271405 154.491032 
L 243.820514 153.75693 
L 246.369623 153.431634 
L 248.918732 153.516506 
L 251.467842 154.005776 
L 254.016951 154.885952 
L 256.56606 156.135463 
L 259.115169 157.724579 
L 261.664278 159.615622 
L 264.213388 161.763498 
L 269.311606 166.61756 
L 279.508043 176.846719 
L 282.057152 179.140886 
L 284.606261 181.20885 
L 287.15537 182.997709 
L 289.704479 184.460883 
L 292.253589 185.559033 
L 294.802698 186.260725 
L 297.351807 186.542836 
L 299.900916 186.390715 
L 302.450025 185.798091 
L 304.999134 184.766758 
L 307.548244 183.306046 
L 310.097353 181.4321 
L 312.646462 179.166995 
L 315.195571 176.53772 
L 317.74468 173.57505 
L 320.29379 170.31238 
L 322.842899 166.784544 
L 327.941117 159.073254 
L 333.039335 150.709031 
L 340.686663 137.440982 
L 355.981318 110.465078 
L 361.079536 101.925181 
L 366.177755 93.918949 
L 368.726864 90.181421 
L 371.275973 86.655059 
L 373.825082 83.362946 
L 376.374192 80.324695 
L 378.923301 77.555321 
L 381.47241 75.06433 
L 384.021519 72.855131 
L 386.570628 70.924851 
L 389.119737 69.26459 
L 391.668847 67.860143 
L 394.217956 66.693141 
L 396.767065 65.742543 
L 399.316174 64.986399 
L 401.865283 64.403729 
L 404.414393 63.976415 
L 406.963502 63.690938 
L 409.512611 63.539847 
L 412.06172 63.522846 
L 414.610829 63.647409 
L 417.159938 63.928879 
L 419.709048 64.390046 
L 422.258157 65.060209 
L 424.807266 65.973805 
L 427.356375 67.168677 
L 429.905484 68.6841 
L 432.454594 70.558683 
L 435.003703 72.828272 
L 437.552812 75.523963 
L 440.101921 78.670345 
L 442.65103 82.284014 
L 445.200139 86.37245 
L 447.749249 90.933247 
L 450.298358 95.95371 
L 452.847467 101.410791 
L 455.396576 107.271331 
L 457.945685 113.492541 
L 463.043904 126.801942 
L 470.691231 147.934832 
L 475.78945 161.899052 
L 480.887668 174.976608 
L 483.436777 180.97025 
L 485.985886 186.492009 
L 488.534996 191.466801 
L 491.084105 195.826957 
L 493.633214 199.514342 
L 496.182323 202.482525 
L 498.731432 204.698912 
L 501.280541 206.146738 
L 503.829651 206.826816 
L 506.37876 206.758897 
L 508.927869 205.982526 
L 511.476978 204.557276 
L 514.026087 202.562266 
L 516.575197 200.09489 
L 519.124306 197.26875 
L 529.320742 185.038599 
L 531.869852 182.456491 
L 534.418961 180.338692 
L 536.96807 178.805363 
L 539.517179 177.960517 
L 542.066288 177.888852 
L 544.615398 178.653371 
L 547.164507 180.293891 
L 549.713616 182.826452 
L 552.262725 186.243604 
L 554.811834 190.515504 
L 557.360943 195.591697 
L 559.910053 201.403479 
L 562.459162 207.866672 
L 565.008271 214.8847 
L 570.106489 230.15638 
L 580.302926 262.487112 
L 580.302926 262.487112 
" clip-path="url(#paec416974b)" style="fill: none; stroke: #800080; stroke-width: 1.5; stroke-linecap: round"/>
   </g>
   <g id="patch_53">
    <path d="M 47.666563 339.84 
L 47.666563 7.2 
" style="fill: none; stroke: #cccccc; stroke-width: 0.8; stroke-linejoin: miter; stroke-linecap: square"/>
   </g>
   <g id="patch_54">
    <path d="M 605.666563 339.84 
L 605.666563 7.2 
" style="fill: none; stroke: #cccccc; stroke-width: 0.8; stroke-linejoin: miter; stroke-linecap: square"/>
   </g>
   <g id="patch_55">
    <path d="M 47.666563 339.84 
L 605.666563 339.84 
" style="fill: none; stroke: #cccccc; stroke-width: 0.8; stroke-linejoin: miter; stroke-linecap: square"/>
   </g>
   <g id="patch_56">
    <path d="M 47.666563 7.2 
L 605.666563 7.2 
" style="fill: none; stroke: #cccccc; stroke-width: 0.8; stroke-linejoin: miter; stroke-linecap: square"/>
   </g>
  </g>
 </g>
 <defs>
  <clipPath id="paec416974b">
   <rect x="47.666563" y="7.2" width="558" height="332.64"/>
  </clipPath>
 </defs>
</svg>
