<?xml version="1.0" encoding="utf-8" standalone="no"?>
<!DOCTYPE svg PUBLIC "-//W3C//DTD SVG 1.1//EN"
  "http://www.w3.org/Graphics/SVG/1.1/DTD/svg11.dtd">
<svg xmlns:xlink="http://www.w3.org/1999/xlink" width="610.438125pt" height="383.478125pt" viewBox="0 0 610.438125 383.478125" xmlns="http://www.w3.org/2000/svg" version="1.1">
 <metadata>
  <rdf:RDF xmlns:dc="http://purl.org/dc/elements/1.1/" xmlns:cc="http://creativecommons.org/ns#" xmlns:rdf="http://www.w3.org/1999/02/22-rdf-syntax-ns#">
   <cc:Work>
    <dc:type rdf:resource="http://purl.org/dc/dcmitype/StillImage"/>
    <dc:date>2026-07-18T04:05:12.162948</dc:date>
    <dc:format>image/svg+xml</dc:format>
    <dc:creator>
     <cc:Agent>
      <dc:title>Matplotlib v3.10.8, https://matplotlib.org/</dc:title>
     </cc:Agent>
    </dc:creator>
   </cc:Work>
  </rdf:RDF>
 </metadata>
 <defs>
  <style type="text/css">*{stroke-linejoin: round; stroke-linecap: butt}</style>
 </defs>
 <g id="figure_1">
  <g id="patch_1">
   <path d="M 0 383.478125 
L 610.438125 383.478125 
L 610.438125 0 
L 0 0 
z
" style="fill: #ffffff"/>
  </g>
  <g id="axes_1">
   <g id="patch_2">
    <path d="M 45.238125 339.84 
L 603.238125 339.84 
L 603.238125 7.2 
L 45.238125 7.2 
z
" style="fill: #ffffff"/>
   </g>
   <g id="matplotlib.axis_1">
    <g id="xtick_1">
     <g id="line2d_1">
      <path d="M 45.238125 339.84 
L 45.238125 7.2 
" clip-path="url(#p9e06bcc836)" style="fill: none; stroke: #b0b0b0; stroke-opacity: 0.2; stroke-width: 0.8; stroke-linecap: square"/>
     </g>
     <g id="line2d_2">
      <defs>
       <path id="m934e2bfaf3" d="M 0 0 
L 0 3.5 
" style="stroke: #000000; stroke-width: 0.8"/>
      </defs>
      <g>
       <use xlink:href="#m934e2bfaf3" x="45.238125" y="339.84" style="stroke: #000000; stroke-width: 0.8"/>
      </g>
     </g>
     <g id="text_1">
      <!-- $\mathdefault{0}$ -->
      <g transform="translate(42.438125 353.997813) scale(0.1 -0.1)">
       <defs>
        <path id="ArialMT-30" d="M 266 2259 
Q 266 3072 433 3567 
Q 600 4063 929 4331 
Q 1259 4600 1759 4600 
Q 2128 4600 2406 4451 
Q 2684 4303 2865 4023 
Q 3047 3744 3150 3342 
Q 3253 2941 3253 2259 
Q 3253 1453 3087 958 
Q 2922 463 2592 192 
Q 2263 -78 1759 -78 
Q 1097 -78 719 397 
Q 266 969 266 2259 
z
M 844 2259 
Q 844 1131 1108 757 
Q 1372 384 1759 384 
Q 2147 384 2411 759 
Q 2675 1134 2675 2259 
Q 2675 3391 2411 3762 
Q 2147 4134 1753 4134 
Q 1366 4134 1134 3806 
Q 844 3388 844 2259 
z
" transform="scale(0.015625)"/>
       </defs>
       <use xlink:href="#ArialMT-30" transform="translate(0 0.125)"/>
      </g>
     </g>
    </g>
    <g id="xtick_2">
     <g id="line2d_3">
      <path d="M 105.890299 339.84 
L 105.890299 7.2 
" clip-path="url(#p9e06bcc836)" style="fill: none; stroke: #b0b0b0; stroke-opacity: 0.2; stroke-width: 0.8; stroke-linecap: square"/>
     </g>
     <g id="line2d_4">
      <g>
       <use xlink:href="#m934e2bfaf3" x="105.890299" y="339.84" style="stroke: #000000; stroke-width: 0.8"/>
      </g>
     </g>
     <g id="text_2">
      <!-- $\mathdefault{10^{0}}$ -->
      <g transform="translate(98.040299 357.1525) scale(0.1 -0.1)">
       <defs>
        <path id="ArialMT-31" d="M 2384 0 
L 1822 0 
L 1822 3584 
Q 1619 3391 1289 3197 
Q 959 3003 697 2906 
L 697 3450 
Q 1169 3672 1522 3987 
Q 1875 4303 2022 4600 
L 2384 4600 
L 2384 0 
z
" transform="scale(0.015625)"/>
       </defs>
       <use xlink:href="#ArialMT-31" transform="translate(0 0.99375)"/>
       <use xlink:href="#ArialMT-30" transform="translate(55.615234 0.99375)"/>
       <use xlink:href="#ArialMT-30" transform="translate(112.972813 70.6875) scale(0.7)"/>
      </g>
     </g>
    </g>
    <g id="xtick_3">
     <g id="line2d_5">
      <path d="M 242.851763 339.84 
L 242.851763 7.2 
" clip-path="url(#p9e06bcc836)" style="fill: none; stroke: #b0b0b0; stroke-opacity: 0.2; stroke-width: 0.8; stroke-linecap: square"/>
     </g>
     <g id="line2d_6">
      <g>
       <use xlink:href="#m934e2bfaf3" x="242.851763" y="339.84" style="stroke: #000000; stroke-width: 0.8"/>
      </g>
     </g>
     <g id="text_3">
      <!-- $\mathdefault{10^{1}}$ -->
      <g transform="translate(235.001763 357.1525) scale(0.1 -0.1)">
       <use xlink:href="#ArialMT-31" transform="translate(0 0.99375)"/>
       <use xlink:href="#ArialMT-30" transform="translate(55.615234 0.99375)"/>
       <use xlink:href="#ArialMT-31" transform="translate(112.972813 70.6875) scale(0.7)"/>
      </g>
     </g>
    </g>
    <g id="xtick_4">
     <g id="line2d_7">
      <path d="M 352.025676 339.84 
L 352.025676 7.2 
" clip-path="url(#p9e06bcc836)" style="fill: none; stroke: #b0b0b0; stroke-opacity: 0.2; stroke-width: 0.8; stroke-linecap: square"/>
     </g>
     <g id="line2d_8">
      <g>
       <use xlink:href="#m934e2bfaf3" x="352.025676" y="339.84" style="stroke: #000000; stroke-width: 0.8"/>
      </g>
     </g>
     <g id="text_4">
      <!-- $\mathdefault{10^{2}}$ -->
      <g transform="translate(344.175676 357.1525) scale(0.1 -0.1)">
       <defs>
        <path id="ArialMT-32" d="M 3222 541 
L 3222 0 
L 194 0 
Q 188 203 259 391 
Q 375 700 629 1000 
Q 884 1300 1366 1694 
Q 2113 2306 2375 2664 
Q 2638 3022 2638 3341 
Q 2638 3675 2398 3904 
Q 2159 4134 1775 4134 
Q 1369 4134 1125 3890 
Q 881 3647 878 3216 
L 300 3275 
Q 359 3922 746 4261 
Q 1134 4600 1788 4600 
Q 2447 4600 2831 4234 
Q 3216 3869 3216 3328 
Q 3216 3053 3103 2787 
Q 2991 2522 2730 2228 
Q 2469 1934 1863 1422 
Q 1356 997 1212 845 
Q 1069 694 975 541 
L 3222 541 
z
" transform="scale(0.015625)"/>
       </defs>
       <use xlink:href="#ArialMT-31" transform="translate(0 0.99375)"/>
       <use xlink:href="#ArialMT-30" transform="translate(55.615234 0.99375)"/>
       <use xlink:href="#ArialMT-32" transform="translate(112.972813 70.6875) scale(0.7)"/>
      </g>
     </g>
    </g>
    <g id="xtick_5">
     <g id="line2d_9">
      <path d="M 461.199589 339.84 
L 461.199589 7.2 
" clip-path="url(#p9e06bcc836)" style="fill: none; stroke: #b0b0b0; stroke-opacity: 0.2; stroke-width: 0.8; stroke-linecap: square"/>
     </g>
     <g id="line2d_10">
      <g>
       <use xlink:href="#m934e2bfaf3" x="461.199589" y="339.84" style="stroke: #000000; stroke-width: 0.8"/>
      </g>
     </g>
     <g id="text_5">
      <!-- $\mathdefault{10^{3}}$ -->
      <g transform="translate(453.349589 357.1525) scale(0.1 -0.1)">
       <defs>
        <path id="ArialMT-33" d="M 269 1209 
L 831 1284 
Q 928 806 1161 595 
Q 1394 384 1728 384 
Q 2125 384 2398 659 
Q 2672 934 2672 1341 
Q 2672 1728 2419 1979 
Q 2166 2231 1775 2231 
Q 1616 2231 1378 2169 
L 1441 2663 
Q 1497 2656 1531 2656 
Q 1891 2656 2178 2843 
Q 2466 3031 2466 3422 
Q 2466 3731 2256 3934 
Q 2047 4138 1716 4138 
Q 1388 4138 1169 3931 
Q 950 3725 888 3313 
L 325 3413 
Q 428 3978 793 4289 
Q 1159 4600 1703 4600 
Q 2078 4600 2393 4439 
Q 2709 4278 2876 4000 
Q 3044 3722 3044 3409 
Q 3044 3113 2884 2869 
Q 2725 2625 2413 2481 
Q 2819 2388 3044 2092 
Q 3269 1797 3269 1353 
Q 3269 753 2831 336 
Q 2394 -81 1725 -81 
Q 1122 -81 723 278 
Q 325 638 269 1209 
z
" transform="scale(0.015625)"/>
       </defs>
       <use xlink:href="#ArialMT-31" transform="translate(0 0.99375)"/>
       <use xlink:href="#ArialMT-30" transform="translate(55.615234 0.99375)"/>
       <use xlink:href="#ArialMT-33" transform="translate(112.972813 70.6875) scale(0.7)"/>
      </g>
     </g>
    </g>
    <g id="xtick_6">
     <g id="line2d_11">
      <path d="M 570.373502 339.84 
L 570.373502 7.2 
" clip-path="url(#p9e06bcc836)" style="fill: none; stroke: #b0b0b0; stroke-opacity: 0.2; stroke-width: 0.8; stroke-linecap: square"/>
     </g>
     <g id="line2d_12">
      <g>
       <use xlink:href="#m934e2bfaf3" x="570.373502" y="339.84" style="stroke: #000000; stroke-width: 0.8"/>
      </g>
     </g>
     <g id="text_6">
      <!-- $\mathdefault{10^{4}}$ -->
      <g transform="translate(562.523502 357.0525) scale(0.1 -0.1)">
       <defs>
        <path id="ArialMT-34" d="M 2069 0 
L 2069 1097 
L 81 1097 
L 81 1613 
L 2172 4581 
L 2631 4581 
L 2631 1613 
L 3250 1613 
L 3250 1097 
L 2631 1097 
L 2631 0 
L 2069 0 
z
M 2069 1613 
L 2069 3678 
L 634 1613 
L 2069 1613 
z
" transform="scale(0.015625)"/>
       </defs>
       <use xlink:href="#ArialMT-31" transform="translate(0 0.201563)"/>
       <use xlink:href="#ArialMT-30" transform="translate(55.615234 0.201563)"/>
       <use xlink:href="#ArialMT-34" transform="translate(112.972813 69.895313) scale(0.7)"/>
      </g>
     </g>
    </g>
    <g id="text_7">
     <!-- Localization Error (km) -->
     <g transform="translate(248.007031 373.331563) scale(0.14 -0.14)">
      <defs>
       <path id="Arial-BoldMT-4c" d="M 491 0 
L 491 4544 
L 1416 4544 
L 1416 772 
L 3716 772 
L 3716 0 
L 491 0 
z
" transform="scale(0.015625)"/>
       <path id="Arial-BoldMT-6f" d="M 256 1706 
Q 256 2144 472 2553 
Q 688 2963 1083 3178 
Q 1478 3394 1966 3394 
Q 2719 3394 3200 2905 
Q 3681 2416 3681 1669 
Q 3681 916 3195 420 
Q 2709 -75 1972 -75 
Q 1516 -75 1102 131 
Q 688 338 472 736 
Q 256 1134 256 1706 
z
M 1156 1659 
Q 1156 1166 1390 903 
Q 1625 641 1969 641 
Q 2313 641 2545 903 
Q 2778 1166 2778 1666 
Q 2778 2153 2545 2415 
Q 2313 2678 1969 2678 
Q 1625 2678 1390 2415 
Q 1156 2153 1156 1659 
z
" transform="scale(0.015625)"/>
       <path id="Arial-BoldMT-63" d="M 3353 2338 
L 2488 2181 
Q 2444 2441 2289 2572 
Q 2134 2703 1888 2703 
Q 1559 2703 1364 2476 
Q 1169 2250 1169 1719 
Q 1169 1128 1367 884 
Q 1566 641 1900 641 
Q 2150 641 2309 783 
Q 2469 925 2534 1272 
L 3397 1125 
Q 3263 531 2881 228 
Q 2500 -75 1859 -75 
Q 1131 -75 698 384 
Q 266 844 266 1656 
Q 266 2478 700 2936 
Q 1134 3394 1875 3394 
Q 2481 3394 2839 3133 
Q 3197 2872 3353 2338 
z
" transform="scale(0.015625)"/>
       <path id="Arial-BoldMT-61" d="M 1116 2306 
L 319 2450 
Q 453 2931 781 3162 
Q 1109 3394 1756 3394 
Q 2344 3394 2631 3255 
Q 2919 3116 3036 2902 
Q 3153 2688 3153 2116 
L 3144 1091 
Q 3144 653 3186 445 
Q 3228 238 3344 0 
L 2475 0 
Q 2441 88 2391 259 
Q 2369 338 2359 363 
Q 2134 144 1878 34 
Q 1622 -75 1331 -75 
Q 819 -75 523 203 
Q 228 481 228 906 
Q 228 1188 362 1408 
Q 497 1628 739 1745 
Q 981 1863 1438 1950 
Q 2053 2066 2291 2166 
L 2291 2253 
Q 2291 2506 2166 2614 
Q 2041 2722 1694 2722 
Q 1459 2722 1328 2630 
Q 1197 2538 1116 2306 
z
M 2291 1594 
Q 2122 1538 1756 1459 
Q 1391 1381 1278 1306 
Q 1106 1184 1106 997 
Q 1106 813 1243 678 
Q 1381 544 1594 544 
Q 1831 544 2047 700 
Q 2206 819 2256 991 
Q 2291 1103 2291 1419 
L 2291 1594 
z
" transform="scale(0.015625)"/>
       <path id="Arial-BoldMT-6c" d="M 459 0 
L 459 4581 
L 1338 4581 
L 1338 0 
L 459 0 
z
" transform="scale(0.015625)"/>
       <path id="Arial-BoldMT-69" d="M 459 3769 
L 459 4581 
L 1338 4581 
L 1338 3769 
L 459 3769 
z
M 459 0 
L 459 3319 
L 1338 3319 
L 1338 0 
L 459 0 
z
" transform="scale(0.015625)"/>
       <path id="Arial-BoldMT-7a" d="M 106 0 
L 106 684 
L 1350 2113 
Q 1656 2463 1803 2609 
Q 1650 2600 1400 2597 
L 228 2591 
L 228 3319 
L 2972 3319 
L 2972 2697 
L 1703 1234 
L 1256 750 
Q 1622 772 1709 772 
L 3069 772 
L 3069 0 
L 106 0 
z
" transform="scale(0.015625)"/>
       <path id="Arial-BoldMT-74" d="M 1981 3319 
L 1981 2619 
L 1381 2619 
L 1381 1281 
Q 1381 875 1398 808 
Q 1416 741 1477 697 
Q 1538 653 1625 653 
Q 1747 653 1978 738 
L 2053 56 
Q 1747 -75 1359 -75 
Q 1122 -75 931 4 
Q 741 84 652 211 
Q 563 338 528 553 
Q 500 706 500 1172 
L 500 2619 
L 97 2619 
L 97 3319 
L 500 3319 
L 500 3978 
L 1381 4491 
L 1381 3319 
L 1981 3319 
z
" transform="scale(0.015625)"/>
       <path id="Arial-BoldMT-6e" d="M 3478 0 
L 2600 0 
L 2600 1694 
Q 2600 2231 2544 2389 
Q 2488 2547 2361 2634 
Q 2234 2722 2056 2722 
Q 1828 2722 1647 2597 
Q 1466 2472 1398 2265 
Q 1331 2059 1331 1503 
L 1331 0 
L 453 0 
L 453 3319 
L 1269 3319 
L 1269 2831 
Q 1703 3394 2363 3394 
Q 2653 3394 2893 3289 
Q 3134 3184 3257 3021 
Q 3381 2859 3429 2653 
Q 3478 2447 3478 2063 
L 3478 0 
z
" transform="scale(0.015625)"/>
       <path id="Arial-BoldMT-20" transform="scale(0.015625)"/>
       <path id="Arial-BoldMT-45" d="M 466 0 
L 466 4581 
L 3863 4581 
L 3863 3806 
L 1391 3806 
L 1391 2791 
L 3691 2791 
L 3691 2019 
L 1391 2019 
L 1391 772 
L 3950 772 
L 3950 0 
L 466 0 
z
" transform="scale(0.015625)"/>
       <path id="Arial-BoldMT-72" d="M 1300 0 
L 422 0 
L 422 3319 
L 1238 3319 
L 1238 2847 
Q 1447 3181 1614 3287 
Q 1781 3394 1994 3394 
Q 2294 3394 2572 3228 
L 2300 2463 
Q 2078 2606 1888 2606 
Q 1703 2606 1575 2504 
Q 1447 2403 1373 2137 
Q 1300 1872 1300 1025 
L 1300 0 
z
" transform="scale(0.015625)"/>
       <path id="Arial-BoldMT-28" d="M 1916 -1347 
L 1313 -1347 
Q 834 -625 584 153 
Q 334 931 334 1659 
Q 334 2563 644 3369 
Q 913 4069 1325 4659 
L 1925 4659 
Q 1497 3713 1336 3048 
Q 1175 2384 1175 1641 
Q 1175 1128 1270 590 
Q 1366 53 1531 -431 
Q 1641 -750 1916 -1347 
z
" transform="scale(0.015625)"/>
       <path id="Arial-BoldMT-6b" d="M 428 0 
L 428 4581 
L 1306 4581 
L 1306 2150 
L 2334 3319 
L 3416 3319 
L 2281 2106 
L 3497 0 
L 2550 0 
L 1716 1491 
L 1306 1063 
L 1306 0 
L 428 0 
z
" transform="scale(0.015625)"/>
       <path id="Arial-BoldMT-6d" d="M 394 3319 
L 1203 3319 
L 1203 2866 
Q 1638 3394 2238 3394 
Q 2556 3394 2790 3262 
Q 3025 3131 3175 2866 
Q 3394 3131 3647 3262 
Q 3900 3394 4188 3394 
Q 4553 3394 4806 3245 
Q 5059 3097 5184 2809 
Q 5275 2597 5275 2122 
L 5275 0 
L 4397 0 
L 4397 1897 
Q 4397 2391 4306 2534 
Q 4184 2722 3931 2722 
Q 3747 2722 3584 2609 
Q 3422 2497 3350 2280 
Q 3278 2063 3278 1594 
L 3278 0 
L 2400 0 
L 2400 1819 
Q 2400 2303 2353 2443 
Q 2306 2584 2207 2653 
Q 2109 2722 1941 2722 
Q 1738 2722 1575 2612 
Q 1413 2503 1342 2297 
Q 1272 2091 1272 1613 
L 1272 0 
L 394 0 
L 394 3319 
z
" transform="scale(0.015625)"/>
       <path id="Arial-BoldMT-29" d="M 216 -1347 
Q 475 -791 581 -494 
Q 688 -197 778 190 
Q 869 578 912 926 
Q 956 1275 956 1641 
Q 956 2384 797 3048 
Q 638 3713 209 4659 
L 806 4659 
Q 1278 3988 1539 3234 
Q 1800 2481 1800 1706 
Q 1800 1053 1594 306 
Q 1359 -531 822 -1347 
L 216 -1347 
z
" transform="scale(0.015625)"/>
      </defs>
      <use xlink:href="#Arial-BoldMT-4c"/>
      <use xlink:href="#Arial-BoldMT-6f" transform="translate(61.083984 0)"/>
      <use xlink:href="#Arial-BoldMT-63" transform="translate(122.167969 0)"/>
      <use xlink:href="#Arial-BoldMT-61" transform="translate(177.783203 0)"/>
      <use xlink:href="#Arial-BoldMT-6c" transform="translate(233.398438 0)"/>
      <use xlink:href="#Arial-BoldMT-69" transform="translate(261.181641 0)"/>
      <use xlink:href="#Arial-BoldMT-7a" transform="translate(288.964844 0)"/>
      <use xlink:href="#Arial-BoldMT-61" transform="translate(338.964844 0)"/>
      <use xlink:href="#Arial-BoldMT-74" transform="translate(394.580078 0)"/>
      <use xlink:href="#Arial-BoldMT-69" transform="translate(427.880859 0)"/>
      <use xlink:href="#Arial-BoldMT-6f" transform="translate(455.664062 0)"/>
      <use xlink:href="#Arial-BoldMT-6e" transform="translate(516.748047 0)"/>
      <use xlink:href="#Arial-BoldMT-20" transform="translate(577.832031 0)"/>
      <use xlink:href="#Arial-BoldMT-45" transform="translate(605.615234 0)"/>
      <use xlink:href="#Arial-BoldMT-72" transform="translate(672.314453 0)"/>
      <use xlink:href="#Arial-BoldMT-72" transform="translate(711.230469 0)"/>
      <use xlink:href="#Arial-BoldMT-6f" transform="translate(750.146484 0)"/>
      <use xlink:href="#Arial-BoldMT-72" transform="translate(811.230469 0)"/>
      <use xlink:href="#Arial-BoldMT-20" transform="translate(850.146484 0)"/>
      <use xlink:href="#Arial-BoldMT-28" transform="translate(877.929688 0)"/>
      <use xlink:href="#Arial-BoldMT-6b" transform="translate(911.230469 0)"/>
      <use xlink:href="#Arial-BoldMT-6d" transform="translate(966.845703 0)"/>
      <use xlink:href="#Arial-BoldMT-29" transform="translate(1055.761719 0)"/>
     </g>
    </g>
   </g>
   <g id="matplotlib.axis_2">
    <g id="ytick_1">
     <g id="line2d_13">
      <path d="M 45.238125 339.84 
L 603.238125 339.84 
" clip-path="url(#p9e06bcc836)" style="fill: none; stroke: #b0b0b0; stroke-opacity: 0.2; stroke-width: 0.8; stroke-linecap: square"/>
     </g>
     <g id="line2d_14">
      <defs>
       <path id="mdc737508fd" d="M 0 0 
L -3.5 0 
" style="stroke: #000000; stroke-width: 0.8"/>
      </defs>
      <g>
       <use xlink:href="#mdc737508fd" x="45.238125" y="339.84" style="stroke: #000000; stroke-width: 0.8"/>
      </g>
     </g>
     <g id="text_8">
      <!-- 0.0 -->
      <g transform="translate(24.338125 343.418906) scale(0.1 -0.1)">
       <defs>
        <path id="ArialMT-2e" d="M 581 0 
L 581 641 
L 1222 641 
L 1222 0 
L 581 0 
z
" transform="scale(0.015625)"/>
       </defs>
       <use xlink:href="#ArialMT-30"/>
       <use xlink:href="#ArialMT-2e" transform="translate(55.615234 0)"/>
       <use xlink:href="#ArialMT-30" transform="translate(83.398438 0)"/>
      </g>
     </g>
    </g>
    <g id="ytick_2">
     <g id="line2d_15">
      <path d="M 45.238125 276.48 
L 603.238125 276.48 
" clip-path="url(#p9e06bcc836)" style="fill: none; stroke: #b0b0b0; stroke-opacity: 0.2; stroke-width: 0.8; stroke-linecap: square"/>
     </g>
     <g id="line2d_16">
      <g>
       <use xlink:href="#mdc737508fd" x="45.238125" y="276.48" style="stroke: #000000; stroke-width: 0.8"/>
      </g>
     </g>
     <g id="text_9">
      <!-- 0.2 -->
      <g transform="translate(24.338125 280.058906) scale(0.1 -0.1)">
       <use xlink:href="#ArialMT-30"/>
       <use xlink:href="#ArialMT-2e" transform="translate(55.615234 0)"/>
       <use xlink:href="#ArialMT-32" transform="translate(83.398438 0)"/>
      </g>
     </g>
    </g>
    <g id="ytick_3">
     <g id="line2d_17">
      <path d="M 45.238125 213.12 
L 603.238125 213.12 
" clip-path="url(#p9e06bcc836)" style="fill: none; stroke: #b0b0b0; stroke-opacity: 0.2; stroke-width: 0.8; stroke-linecap: square"/>
     </g>
     <g id="line2d_18">
      <g>
       <use xlink:href="#mdc737508fd" x="45.238125" y="213.12" style="stroke: #000000; stroke-width: 0.8"/>
      </g>
     </g>
     <g id="text_10">
      <!-- 0.4 -->
      <g transform="translate(24.338125 216.698906) scale(0.1 -0.1)">
       <use xlink:href="#ArialMT-30"/>
       <use xlink:href="#ArialMT-2e" transform="translate(55.615234 0)"/>
       <use xlink:href="#ArialMT-34" transform="translate(83.398438 0)"/>
      </g>
     </g>
    </g>
    <g id="ytick_4">
     <g id="line2d_19">
      <path d="M 45.238125 149.76 
L 603.238125 149.76 
" clip-path="url(#p9e06bcc836)" style="fill: none; stroke: #b0b0b0; stroke-opacity: 0.2; stroke-width: 0.8; stroke-linecap: square"/>
     </g>
     <g id="line2d_20">
      <g>
       <use xlink:href="#mdc737508fd" x="45.238125" y="149.76" style="stroke: #000000; stroke-width: 0.8"/>
      </g>
     </g>
     <g id="text_11">
      <!-- 0.6 -->
      <g transform="translate(24.338125 153.338906) scale(0.1 -0.1)">
       <defs>
        <path id="ArialMT-36" d="M 3184 3459 
L 2625 3416 
Q 2550 3747 2413 3897 
Q 2184 4138 1850 4138 
Q 1581 4138 1378 3988 
Q 1113 3794 959 3422 
Q 806 3050 800 2363 
Q 1003 2672 1297 2822 
Q 1591 2972 1913 2972 
Q 2475 2972 2870 2558 
Q 3266 2144 3266 1488 
Q 3266 1056 3080 686 
Q 2894 316 2569 119 
Q 2244 -78 1831 -78 
Q 1128 -78 684 439 
Q 241 956 241 2144 
Q 241 3472 731 4075 
Q 1159 4600 1884 4600 
Q 2425 4600 2770 4297 
Q 3116 3994 3184 3459 
z
M 888 1484 
Q 888 1194 1011 928 
Q 1134 663 1356 523 
Q 1578 384 1822 384 
Q 2178 384 2434 671 
Q 2691 959 2691 1453 
Q 2691 1928 2437 2201 
Q 2184 2475 1800 2475 
Q 1419 2475 1153 2201 
Q 888 1928 888 1484 
z
" transform="scale(0.015625)"/>
       </defs>
       <use xlink:href="#ArialMT-30"/>
       <use xlink:href="#ArialMT-2e" transform="translate(55.615234 0)"/>
       <use xlink:href="#ArialMT-36" transform="translate(83.398438 0)"/>
      </g>
     </g>
    </g>
    <g id="ytick_5">
     <g id="line2d_21">
      <path d="M 45.238125 86.4 
L 603.238125 86.4 
" clip-path="url(#p9e06bcc836)" style="fill: none; stroke: #b0b0b0; stroke-opacity: 0.2; stroke-width: 0.8; stroke-linecap: square"/>
     </g>
     <g id="line2d_22">
      <g>
       <use xlink:href="#mdc737508fd" x="45.238125" y="86.4" style="stroke: #000000; stroke-width: 0.8"/>
      </g>
     </g>
     <g id="text_12">
      <!-- 0.8 -->
      <g transform="translate(24.338125 89.978906) scale(0.1 -0.1)">
       <defs>
        <path id="ArialMT-38" d="M 1131 2484 
Q 781 2613 612 2850 
Q 444 3088 444 3419 
Q 444 3919 803 4259 
Q 1163 4600 1759 4600 
Q 2359 4600 2725 4251 
Q 3091 3903 3091 3403 
Q 3091 3084 2923 2848 
Q 2756 2613 2416 2484 
Q 2838 2347 3058 2040 
Q 3278 1734 3278 1309 
Q 3278 722 2862 322 
Q 2447 -78 1769 -78 
Q 1091 -78 675 323 
Q 259 725 259 1325 
Q 259 1772 486 2073 
Q 713 2375 1131 2484 
z
M 1019 3438 
Q 1019 3113 1228 2906 
Q 1438 2700 1772 2700 
Q 2097 2700 2305 2904 
Q 2513 3109 2513 3406 
Q 2513 3716 2298 3927 
Q 2084 4138 1766 4138 
Q 1444 4138 1231 3931 
Q 1019 3725 1019 3438 
z
M 838 1322 
Q 838 1081 952 856 
Q 1066 631 1291 507 
Q 1516 384 1775 384 
Q 2178 384 2440 643 
Q 2703 903 2703 1303 
Q 2703 1709 2433 1975 
Q 2163 2241 1756 2241 
Q 1359 2241 1098 1978 
Q 838 1716 838 1322 
z
" transform="scale(0.015625)"/>
       </defs>
       <use xlink:href="#ArialMT-30"/>
       <use xlink:href="#ArialMT-2e" transform="translate(55.615234 0)"/>
       <use xlink:href="#ArialMT-38" transform="translate(83.398438 0)"/>
      </g>
     </g>
    </g>
    <g id="ytick_6">
     <g id="line2d_23">
      <path d="M 45.238125 23.04 
L 603.238125 23.04 
" clip-path="url(#p9e06bcc836)" style="fill: none; stroke: #b0b0b0; stroke-opacity: 0.2; stroke-width: 0.8; stroke-linecap: square"/>
     </g>
     <g id="line2d_24">
      <g>
       <use xlink:href="#mdc737508fd" x="45.238125" y="23.04" style="stroke: #000000; stroke-width: 0.8"/>
      </g>
     </g>
     <g id="text_13">
      <!-- 1.0 -->
      <g transform="translate(24.338125 26.618906) scale(0.1 -0.1)">
       <use xlink:href="#ArialMT-31"/>
       <use xlink:href="#ArialMT-2e" transform="translate(55.615234 0)"/>
       <use xlink:href="#ArialMT-30" transform="translate(83.398438 0)"/>
      </g>
     </g>
    </g>
    <g id="text_14">
     <!-- Fraction of Images -->
     <g transform="translate(17.391563 235.75) rotate(-90) scale(0.14 -0.14)">
      <defs>
       <path id="Arial-BoldMT-46" d="M 472 0 
L 472 4581 
L 3613 4581 
L 3613 3806 
L 1397 3806 
L 1397 2722 
L 3309 2722 
L 3309 1947 
L 1397 1947 
L 1397 0 
L 472 0 
z
" transform="scale(0.015625)"/>
       <path id="Arial-BoldMT-66" d="M 75 3319 
L 563 3319 
L 563 3569 
Q 563 3988 652 4194 
Q 741 4400 980 4529 
Q 1219 4659 1584 4659 
Q 1959 4659 2319 4547 
L 2200 3934 
Q 1991 3984 1797 3984 
Q 1606 3984 1523 3895 
Q 1441 3806 1441 3553 
L 1441 3319 
L 2097 3319 
L 2097 2628 
L 1441 2628 
L 1441 0 
L 563 0 
L 563 2628 
L 75 2628 
L 75 3319 
z
" transform="scale(0.015625)"/>
       <path id="Arial-BoldMT-49" d="M 438 0 
L 438 4581 
L 1363 4581 
L 1363 0 
L 438 0 
z
" transform="scale(0.015625)"/>
       <path id="Arial-BoldMT-67" d="M 378 -219 
L 1381 -341 
Q 1406 -516 1497 -581 
Q 1622 -675 1891 -675 
Q 2234 -675 2406 -572 
Q 2522 -503 2581 -350 
Q 2622 -241 2622 53 
L 2622 538 
Q 2228 0 1628 0 
Q 959 0 569 566 
Q 263 1013 263 1678 
Q 263 2513 664 2953 
Q 1066 3394 1663 3394 
Q 2278 3394 2678 2853 
L 2678 3319 
L 3500 3319 
L 3500 341 
Q 3500 -247 3403 -537 
Q 3306 -828 3131 -993 
Q 2956 -1159 2664 -1253 
Q 2372 -1347 1925 -1347 
Q 1081 -1347 728 -1058 
Q 375 -769 375 -325 
Q 375 -281 378 -219 
z
M 1163 1728 
Q 1163 1200 1367 954 
Q 1572 709 1872 709 
Q 2194 709 2416 961 
Q 2638 1213 2638 1706 
Q 2638 2222 2425 2472 
Q 2213 2722 1888 2722 
Q 1572 2722 1367 2476 
Q 1163 2231 1163 1728 
z
" transform="scale(0.015625)"/>
       <path id="Arial-BoldMT-65" d="M 2381 1056 
L 3256 909 
Q 3088 428 2723 176 
Q 2359 -75 1813 -75 
Q 947 -75 531 491 
Q 203 944 203 1634 
Q 203 2459 634 2926 
Q 1066 3394 1725 3394 
Q 2466 3394 2894 2905 
Q 3322 2416 3303 1406 
L 1103 1406 
Q 1113 1016 1316 798 
Q 1519 581 1822 581 
Q 2028 581 2168 693 
Q 2309 806 2381 1056 
z
M 2431 1944 
Q 2422 2325 2234 2523 
Q 2047 2722 1778 2722 
Q 1491 2722 1303 2513 
Q 1116 2303 1119 1944 
L 2431 1944 
z
" transform="scale(0.015625)"/>
       <path id="Arial-BoldMT-73" d="M 150 947 
L 1031 1081 
Q 1088 825 1259 692 
Q 1431 559 1741 559 
Q 2081 559 2253 684 
Q 2369 772 2369 919 
Q 2369 1019 2306 1084 
Q 2241 1147 2013 1200 
Q 950 1434 666 1628 
Q 272 1897 272 2375 
Q 272 2806 612 3100 
Q 953 3394 1669 3394 
Q 2350 3394 2681 3172 
Q 3013 2950 3138 2516 
L 2309 2363 
Q 2256 2556 2107 2659 
Q 1959 2763 1684 2763 
Q 1338 2763 1188 2666 
Q 1088 2597 1088 2488 
Q 1088 2394 1175 2328 
Q 1294 2241 1995 2081 
Q 2697 1922 2975 1691 
Q 3250 1456 3250 1038 
Q 3250 581 2869 253 
Q 2488 -75 1741 -75 
Q 1063 -75 667 200 
Q 272 475 150 947 
z
" transform="scale(0.015625)"/>
      </defs>
      <use xlink:href="#Arial-BoldMT-46"/>
      <use xlink:href="#Arial-BoldMT-72" transform="translate(61.083984 0)"/>
      <use xlink:href="#Arial-BoldMT-61" transform="translate(100 0)"/>
      <use xlink:href="#Arial-BoldMT-63" transform="translate(155.615234 0)"/>
      <use xlink:href="#Arial-BoldMT-74" transform="translate(211.230469 0)"/>
      <use xlink:href="#Arial-BoldMT-69" transform="translate(244.53125 0)"/>
      <use xlink:href="#Arial-BoldMT-6f" transform="translate(272.314453 0)"/>
      <use xlink:href="#Arial-BoldMT-6e" transform="translate(333.398438 0)"/>
      <use xlink:href="#Arial-BoldMT-20" transform="translate(394.482422 0)"/>
      <use xlink:href="#Arial-BoldMT-6f" transform="translate(422.265625 0)"/>
      <use xlink:href="#Arial-BoldMT-66" transform="translate(483.349609 0)"/>
      <use xlink:href="#Arial-BoldMT-20" transform="translate(516.650391 0)"/>
      <use xlink:href="#Arial-BoldMT-49" transform="translate(544.433594 0)"/>
      <use xlink:href="#Arial-BoldMT-6d" transform="translate(572.216797 0)"/>
      <use xlink:href="#Arial-BoldMT-61" transform="translate(661.132812 0)"/>
      <use xlink:href="#Arial-BoldMT-67" transform="translate(716.748047 0)"/>
      <use xlink:href="#Arial-BoldMT-65" transform="translate(777.832031 0)"/>
      <use xlink:href="#Arial-BoldMT-73" transform="translate(833.447266 0)"/>
     </g>
    </g>
   </g>
   <g id="line2d_25">
    <path d="M 45.799067 339.84 
L 45.945991 339.311295 
L 45.976507 339.099813 
L 46.214306 338.888331 
L 46.273513 338.465367 
L 46.400552 338.359626 
L 46.802592 338.148144 
L 47.091735 337.936662 
L 47.458182 337.619439 
L 47.597459 337.407957 
L 47.715582 337.196475 
L 47.871892 336.879252 
L 48.127474 336.456288 
L 48.161982 336.350547 
L 48.664637 335.927583 
L 48.847148 335.61036 
L 49.399724 334.975915 
L 49.863392 334.764433 
L 49.950375 334.552951 
L 50.372523 333.495541 
L 51.049711 333.072577 
L 51.199193 332.861095 
L 51.538048 332.543872 
L 51.633184 332.33239 
L 52.170796 332.120908 
L 52.34036 331.803685 
L 52.450798 331.697944 
L 52.89915 331.486462 
L 53.002385 331.27498 
L 53.296944 331.063498 
L 53.319223 330.852016 
L 53.71034 330.534793 
L 53.958887 330.21757 
L 54.172172 330.006088 
L 54.240102 329.794606 
L 54.853155 329.477383 
L 54.920572 329.265901 
L 55.259601 328.948678 
L 55.481521 328.314232 
L 55.577786 328.10275 
L 56.865214 327.785527 
L 57.107143 327.256822 
L 57.539613 326.728117 
L 57.631592 326.516636 
L 58.037391 326.305154 
L 58.185503 326.093672 
L 58.491504 325.88219 
L 58.539235 325.670708 
L 58.690333 325.459226 
L 58.72091 325.247744 
L 59.920533 324.190334 
L 60.270818 323.873111 
L 60.770574 323.661629 
L 60.863868 323.344406 
L 60.943403 323.132924 
L 61.304956 322.70996 
L 61.510743 322.392737 
L 61.517169 322.286996 
L 61.719719 322.075514 
L 62.330322 321.441068 
L 62.634045 321.335327 
L 63.460172 321.123845 
L 64.002472 320.806622 
L 64.079072 320.383658 
L 64.399345 319.960694 
L 64.399345 319.854953 
L 64.799597 319.643471 
L 64.806172 319.53773 
L 65.318627 319.114766 
L 65.429128 318.903284 
L 65.644015 318.586061 
L 65.692967 318.374579 
L 66.135238 318.057356 
L 66.144268 317.951615 
L 67.199902 317.634393 
L 67.215092 317.528652 
L 67.626401 317.211429 
L 67.653569 316.894206 
L 67.880016 316.682724 
L 68.136819 316.471242 
L 68.506291 316.154019 
L 68.565729 315.836796 
L 69.548067 315.625314 
L 69.557602 315.519573 
L 70.342777 315.308091 
L 70.345777 315.20235 
L 71.137517 314.779386 
L 71.141673 314.673645 
L 72.821332 313.827717 
L 73.2612 313.616235 
L 73.326034 313.193271 
L 73.430213 312.981789 
L 73.430213 312.876048 
L 73.829677 312.664566 
L 74.004788 312.347343 
L 74.410048 311.924379 
L 76.173 311.395674 
L 76.173 311.289933 
L 77.138061 310.866969 
L 77.394892 310.444005 
L 77.550604 310.232523 
L 77.601559 310.126782 
L 79.588877 309.703818 
L 80.041971 309.175113 
L 80.849838 308.75215 
L 81.616716 308.540668 
L 82.036685 308.329186 
L 82.866832 308.117704 
L 83.790463 307.800481 
L 83.887067 307.69474 
L 84.712432 307.377517 
L 84.856181 307.060294 
L 85.022981 306.954553 
L 85.833212 306.743071 
L 87.046572 306.002884 
L 88.693523 305.685661 
L 88.737603 305.474179 
L 89.138631 305.262697 
L 89.976179 304.839733 
L 90.004247 304.733992 
L 90.476248 304.52251 
L 91.11959 304.099546 
L 92.072276 303.782323 
L 92.48363 303.570841 
L 94.485617 303.042136 
L 94.91689 302.724913 
L 95.311571 302.513431 
L 95.440165 302.301949 
L 97.518173 301.773244 
L 98.87004 301.456021 
L 98.978842 301.244539 
L 100.235273 300.927316 
L 100.235273 300.821575 
L 100.382468 300.715834 
L 101.542526 300.504352 
L 102.936037 299.975648 
L 103.059386 299.658425 
L 103.486654 299.446943 
L 104.818631 299.12972 
L 105.316357 298.918238 
L 105.364121 298.812497 
L 105.904622 298.495274 
L 105.930037 298.389533 
L 107.445429 297.860828 
L 107.548706 297.755087 
L 108.641697 297.543605 
L 108.708432 297.437864 
L 109.100532 297.226382 
L 109.113004 297.120641 
L 110.011998 296.803418 
L 110.190268 296.697677 
L 110.786971 296.486195 
L 110.928121 296.380454 
L 111.459512 296.168972 
L 111.865963 295.851749 
L 113.9526 295.217303 
L 114.256894 295.005821 
L 114.256894 294.90008 
L 114.605199 294.688598 
L 115.455389 294.477116 
L 116.432724 294.159893 
L 116.466077 294.054152 
L 116.885941 293.84267 
L 118.553162 293.631188 
L 119.314245 293.102483 
L 119.443053 292.996742 
L 120.491736 292.78526 
L 120.627846 292.679519 
L 122.13616 292.468037 
L 123.060084 292.256555 
L 123.127376 292.150814 
L 124.314534 291.833591 
L 124.314534 291.72785 
L 124.539867 291.622109 
L 126.423122 291.410628 
L 126.442839 291.304887 
L 126.66379 291.093405 
L 126.66379 290.987664 
L 127.036324 290.670441 
L 127.053257 290.5647 
L 127.28193 290.458959 
L 128.311879 290.247477 
L 128.313875 290.035995 
L 128.587043 289.930254 
L 129.642472 289.824513 
L 131.952799 289.613031 
L 131.952799 289.50729 
L 132.726948 289.190067 
L 132.736933 289.084326 
L 133.077393 288.978585 
L 134.636572 288.767103 
L 134.645277 288.661362 
L 135.715384 288.44988 
L 136.903771 288.026916 
L 137.190214 287.815434 
L 139.334092 287.498211 
L 139.424204 287.39247 
L 141.293743 287.180988 
L 142.365758 286.969506 
L 143.89671 286.758024 
L 144.33791 286.546542 
L 144.833301 286.123578 
L 148.233048 285.594873 
L 148.628126 285.383391 
L 149.596126 285.171909 
L 151.135399 284.643204 
L 154.836519 284.325981 
L 154.980626 284.22024 
L 159.018136 283.797276 
L 159.267386 283.585794 
L 159.267386 283.480053 
L 160.334051 283.268571 
L 161.737445 282.951348 
L 164.335445 282.528385 
L 164.596386 282.211162 
L 165.596279 281.99968 
L 167.02098 281.470975 
L 167.869756 281.259493 
L 168.175381 280.94227 
L 168.1867 280.836529 
L 168.486785 280.625047 
L 168.568957 280.519306 
L 169.696956 280.307824 
L 170.006128 280.096342 
L 170.10039 279.990601 
L 170.729868 279.673378 
L 170.729868 279.567637 
L 173.381902 278.933191 
L 173.445452 278.82745 
L 173.842137 278.615968 
L 173.91659 278.510227 
L 175.067968 278.298745 
L 175.896915 277.981522 
L 177.135024 277.77004 
L 177.135024 277.664299 
L 178.560608 277.452817 
L 178.817227 277.135594 
L 179.218019 276.924112 
L 179.405993 276.606889 
L 180.428112 276.289666 
L 180.721987 275.972443 
L 181.236747 275.443738 
L 181.812838 275.232256 
L 181.812838 275.126515 
L 183.064755 274.915033 
L 183.429606 274.386328 
L 184.759297 274.174846 
L 185.327625 273.963364 
L 187.843731 273.540401 
L 189.242453 273.223178 
L 189.242453 273.117437 
L 189.433258 273.011696 
L 190.491335 272.800214 
L 191.127685 272.588732 
L 191.91163 272.060027 
L 193.804913 271.31984 
L 194.22128 271.108358 
L 195.049875 270.896876 
L 195.049875 270.791135 
L 196.46333 270.156689 
L 198.104381 269.839466 
L 198.342671 269.627984 
L 198.883703 269.310761 
L 198.952623 269.099279 
L 199.306723 268.887797 
L 200.051434 268.570574 
L 201.136103 268.253351 
L 201.691276 268.041869 
L 201.792796 267.936128 
L 202.192159 267.830387 
L 203.309157 267.618905 
L 203.52329 267.407423 
L 203.983073 267.195941 
L 204.060454 267.0902 
L 204.293086 266.984459 
L 205.016605 266.772977 
L 205.838857 266.455754 
L 205.872789 266.350013 
L 207.990923 265.821308 
L 208.044384 265.609826 
L 208.377132 265.398344 
L 208.895383 265.186862 
L 208.895383 265.081121 
L 209.085571 264.975381 
L 210.01218 264.763899 
L 210.951786 264.552417 
L 211.05741 264.235194 
L 212.315495 263.917971 
L 212.315495 263.81223 
L 213.468112 262.966302 
L 213.927159 262.649079 
L 214.923341 262.014633 
L 214.923341 261.908892 
L 215.738699 261.69741 
L 215.990001 261.485928 
L 217.262176 261.274446 
L 217.293547 261.168705 
L 217.80583 260.957223 
L 218.410534 260.534259 
L 219.165119 260.322777 
L 219.565117 260.005554 
L 221.066068 259.688331 
L 221.073578 259.58259 
L 223.607517 259.371108 
L 223.657567 259.265367 
L 224.277456 259.053885 
L 225.453101 258.736662 
L 225.591151 258.52518 
L 226.834806 257.784993 
L 226.839104 257.679252 
L 227.420451 257.46777 
L 228.003011 257.150547 
L 228.098288 256.939065 
L 229.32368 256.727583 
L 231.174808 256.304619 
L 231.317939 255.987397 
L 231.956856 255.564433 
L 232.234917 255.352951 
L 233.487739 255.141469 
L 234.04622 254.824246 
L 234.151308 254.718505 
L 234.600809 254.507023 
L 236.588844 254.295541 
L 238.037464 253.978318 
L 238.037464 253.872577 
L 239.194121 253.661095 
L 239.194121 253.555354 
L 239.655022 253.343872 
L 240.199324 252.920908 
L 240.313683 252.709426 
L 241.158363 252.497944 
L 241.844494 252.180721 
L 243.888772 251.969239 
L 244.578516 251.757757 
L 245.231844 251.546275 
L 245.386473 251.334793 
L 246.61839 251.123311 
L 247.23771 250.594606 
L 247.240257 250.488865 
L 248.518083 250.065901 
L 250.27835 249.854419 
L 253.18759 249.008491 
L 253.241584 248.90275 
L 253.760836 248.691268 
L 254.058515 248.479786 
L 254.583358 248.268304 
L 254.754174 248.056822 
L 256.526232 247.528117 
L 256.560149 247.210895 
L 256.846271 246.999413 
L 257.578884 246.787931 
L 259.197434 246.047744 
L 259.229493 245.942003 
L 260.730945 245.096075 
L 261.133549 244.884593 
L 261.489462 244.778852 
L 262.74175 244.56737 
L 262.808201 244.461629 
L 263.885309 244.250147 
L 263.985521 244.038665 
L 264.613165 243.827183 
L 267.636729 243.615701 
L 268.994858 243.404219 
L 269.264939 243.192737 
L 269.489992 243.086996 
L 270.691823 242.875514 
L 270.782131 242.769773 
L 271.977908 242.558291 
L 272.289013 242.241068 
L 273.325025 241.923845 
L 275.665186 241.712363 
L 275.671265 241.606622 
L 275.998132 241.39514 
L 278.287502 241.183658 
L 279.493369 240.760694 
L 279.616748 240.654953 
L 280.260862 240.443471 
L 281.844262 240.126248 
L 281.919893 240.020507 
L 283.018017 239.491802 
L 283.300253 239.174579 
L 284.118514 238.751615 
L 284.2954 238.645874 
L 286.185955 238.11717 
L 286.221101 238.011429 
L 286.496008 237.799947 
L 286.572996 237.694206 
L 288.14189 237.482724 
L 288.809411 237.271242 
L 289.866345 236.954019 
L 290.715488 236.425314 
L 290.871367 236.213832 
L 291.458678 236.00235 
L 291.538722 235.896609 
L 292.419571 235.579386 
L 292.542646 235.473645 
L 293.250958 235.262163 
L 293.64179 235.050681 
L 293.741992 234.94494 
L 295.907279 234.521976 
L 295.983095 234.416235 
L 297.331035 234.099012 
L 297.37742 233.993271 
L 298.257503 233.781789 
L 298.327457 233.676048 
L 299.56607 233.358825 
L 299.599734 233.253084 
L 300.078993 233.041602 
L 301.237946 232.83012 
L 301.286368 232.724379 
L 301.985301 232.512897 
L 302.262785 232.407156 
L 303.149436 232.195674 
L 303.300874 231.984192 
L 303.67008 231.77271 
L 303.989661 231.561228 
L 305.118747 231.244005 
L 305.128713 231.138264 
L 306.420853 230.292336 
L 308.442405 229.763632 
L 309.362358 229.55215 
L 309.610443 229.340668 
L 309.649721 229.234927 
L 311.858858 228.177517 
L 312.77673 227.966035 
L 312.86356 227.860294 
L 314.472712 227.648812 
L 314.624516 227.543071 
L 316.100072 227.331589 
L 316.16296 227.225848 
L 318.789166 226.062697 
L 321.040795 225.533992 
L 321.131025 225.111028 
L 321.726778 224.899546 
L 322.328261 224.688064 
L 322.387373 224.476582 
L 322.743966 224.2651 
L 323.162635 223.630654 
L 323.617963 223.419172 
L 324.421093 223.20769 
L 324.621009 223.101949 
L 325.092646 222.890467 
L 325.544762 222.573244 
L 325.622507 222.361762 
L 327.316743 222.15028 
L 327.321717 222.044539 
L 327.676397 221.727316 
L 331.219039 220.669907 
L 331.260328 220.352684 
L 331.564569 220.141202 
L 335.351825 219.401015 
L 336.129329 219.083792 
L 337.178058 218.87231 
L 337.661766 218.660828 
L 338.781862 218.449346 
L 339.280941 218.132123 
L 339.980574 217.920641 
L 340.130533 217.603418 
L 340.304334 217.286195 
L 341.252409 217.074713 
L 341.411978 216.75749 
L 341.810061 216.440267 
L 342.432141 216.228785 
L 342.440691 216.123044 
L 342.846191 215.911562 
L 343.490397 215.594339 
L 343.55964 215.382857 
L 344.940637 214.64267 
L 346.311006 214.325447 
L 346.43559 214.113965 
L 346.767536 213.691001 
L 348.40787 213.268037 
L 348.594599 213.056555 
L 348.868015 212.950814 
L 350.178351 212.739332 
L 350.46095 212.316368 
L 350.464263 212.210628 
L 350.655924 211.999146 
L 350.671683 211.787664 
L 351.309066 211.470441 
L 351.405304 211.153218 
L 351.706369 210.835995 
L 352.239642 210.624513 
L 352.403374 210.201549 
L 353.089237 209.884326 
L 353.440233 209.672844 
L 353.53939 209.567103 
L 354.775908 209.038398 
L 354.98767 208.615434 
L 355.508938 208.403952 
L 355.563377 208.298211 
L 356.366576 207.980988 
L 356.381966 207.663765 
L 356.564684 207.452283 
L 357.594565 207.240801 
L 357.782736 207.029319 
L 357.981094 206.712096 
L 358.092786 206.289132 
L 358.583375 205.866168 
L 358.709298 205.443204 
L 359.619939 205.125981 
L 359.75039 205.02024 
L 360.158688 204.808758 
L 360.183848 204.597276 
L 360.644509 204.280053 
L 360.662717 204.068571 
L 361.912477 203.751348 
L 362.073761 203.539866 
L 362.933012 203.328385 
L 363.579121 202.79968 
L 363.943925 202.482457 
L 364.097595 202.270975 
L 364.73437 202.059493 
L 364.73437 201.953752 
L 365.359266 201.74227 
L 365.815189 201.530788 
L 365.886275 201.213565 
L 366.151632 201.002083 
L 366.729521 200.790601 
L 366.99569 200.473378 
L 367.571518 200.156155 
L 367.82301 199.733191 
L 368.108026 199.521709 
L 368.168213 199.415968 
L 368.882752 199.098745 
L 369.050974 198.781522 
L 369.551362 198.252817 
L 369.954611 197.935594 
L 370.258068 197.724112 
L 370.673619 197.51263 
L 371.56518 197.195407 
L 371.69107 197.089666 
L 373.27867 196.560961 
L 373.907827 196.032256 
L 374.372292 195.820774 
L 374.496048 195.39781 
L 375.329501 195.080587 
L 375.942763 194.657623 
L 376.086118 194.446142 
L 376.570919 194.023178 
L 376.658644 193.705955 
L 377.213838 193.17725 
L 377.449457 192.965768 
L 378.245807 192.754286 
L 378.452969 192.542804 
L 379.360634 191.696876 
L 380.126667 191.379653 
L 380.462215 191.06243 
L 380.788618 190.850948 
L 380.863479 190.639466 
L 381.08118 190.427984 
L 381.112608 190.322243 
L 381.590199 189.899279 
L 381.735866 189.687797 
L 382.70009 188.94761 
L 382.955413 188.630387 
L 383.317508 188.418905 
L 383.357528 188.313164 
L 384.22356 187.995941 
L 384.995545 187.678718 
L 385.206249 187.467236 
L 386.362714 186.621308 
L 386.379477 186.515567 
L 386.658242 186.304085 
L 386.745617 186.092603 
L 386.758197 185.881121 
L 387.313902 185.563899 
L 388.010816 185.352417 
L 388.395867 185.140935 
L 388.558951 184.717971 
L 389.047936 184.400748 
L 389.22322 184.083525 
L 389.291277 183.977784 
L 389.878851 183.766302 
L 390.041192 183.660561 
L 390.686322 183.449079 
L 391.174663 183.237597 
L 391.241642 183.131856 
L 392.164256 182.708892 
L 392.595606 182.391669 
L 393.638281 181.862964 
L 394.258584 181.017036 
L 394.947505 180.699813 
L 394.964283 180.594072 
L 395.322578 180.38259 
L 395.414335 179.959626 
L 396.094943 179.748144 
L 396.145126 179.536662 
L 396.73336 179.219439 
L 397.284083 178.796475 
L 397.365194 178.584993 
L 397.543828 178.373511 
L 397.798466 177.950547 
L 398.486208 177.739065 
L 398.682824 177.316101 
L 398.785909 177.104619 
L 399.595794 176.787397 
L 399.607464 176.575915 
L 399.793044 176.364433 
L 399.909396 175.941469 
L 400.484991 175.729987 
L 401.755218 174.566836 
L 401.894004 174.249613 
L 402.183989 173.93239 
L 402.396644 173.720908 
L 402.936683 173.509426 
L 403.077249 173.297944 
L 403.951557 172.663498 
L 404.086951 172.346275 
L 404.229408 172.029052 
L 404.30425 171.394606 
L 404.467073 171.183124 
L 404.563753 170.971642 
L 404.836762 170.76016 
L 404.891098 170.654419 
L 405.074917 170.442937 
L 405.094826 170.337196 
L 405.499266 170.125714 
L 405.79228 169.808491 
L 406.053182 169.597009 
L 406.278274 169.385527 
L 406.687644 169.174045 
L 406.961265 168.64534 
L 407.039683 168.433858 
L 407.533558 168.116636 
L 408.859135 167.164967 
L 409.018712 166.636262 
L 409.331048 166.319039 
L 409.362734 166.107557 
L 409.733425 165.896075 
L 409.751916 165.790334 
L 410.297326 165.473111 
L 411.149453 164.944406 
L 411.253035 164.732924 
L 411.673369 164.521442 
L 411.77579 164.204219 
L 412.85559 163.569773 
L 412.856356 163.464032 
L 413.166807 163.146809 
L 413.328442 162.723845 
L 414.720935 161.772176 
L 414.816093 161.454953 
L 415.264115 160.820507 
L 415.409688 160.397543 
L 415.812917 160.186061 
L 416.221038 159.974579 
L 416.329617 159.445874 
L 416.984802 159.128652 
L 417.113643 158.811429 
L 417.157061 158.705688 
L 417.644137 158.282724 
L 417.69837 158.071242 
L 417.877298 157.754019 
L 417.919057 157.648278 
L 418.351799 157.331055 
L 418.50758 157.013832 
L 419.375993 156.590868 
L 419.474629 156.379386 
L 419.630699 156.167904 
L 419.632601 156.062163 
L 419.978986 155.850681 
L 420.057283 155.74494 
L 420.463599 155.533458 
L 420.645374 155.321976 
L 420.679971 155.216235 
L 421.016489 155.004753 
L 421.177906 154.793271 
L 421.720104 154.581789 
L 421.810075 154.264566 
L 422.732753 153.524379 
L 422.862316 153.312897 
L 423.154794 153.101415 
L 423.32361 152.995674 
L 423.745539 152.784192 
L 423.751318 152.678451 
L 424.482714 152.466969 
L 424.495507 152.361228 
L 425.731645 151.409559 
L 425.765972 151.303818 
L 427.404024 150.457891 
L 427.415494 150.35215 
L 427.803943 150.034927 
L 427.816168 149.823445 
L 428.248247 149.400481 
L 428.248247 149.29474 
L 428.696279 148.871776 
L 428.771378 148.766035 
L 429.075803 148.554553 
L 430.40757 147.497143 
L 431.540166 146.756956 
L 431.639046 146.12251 
L 432.027888 145.911028 
L 432.118628 145.593805 
L 432.500503 145.276582 
L 432.604591 145.170841 
L 432.954989 144.959359 
L 433.134921 143.901949 
L 433.370811 143.478985 
L 433.642973 143.161762 
L 433.700363 143.056021 
L 434.089211 142.844539 
L 434.437737 142.527316 
L 434.515831 142.421575 
L 434.867652 142.210093 
L 434.940042 141.998611 
L 434.993727 141.575648 
L 435.288935 141.364166 
L 435.505573 141.152684 
L 435.574478 140.941202 
L 435.685155 140.72972 
L 435.948586 140.518238 
L 436.052994 140.306756 
L 436.27937 140.095274 
L 436.850617 139.67231 
L 436.942572 139.355087 
L 437.184367 139.037864 
L 437.357957 138.720641 
L 437.426742 138.6149 
L 437.966686 138.403418 
L 438.095145 138.191936 
L 438.095145 138.086195 
L 438.390053 137.874713 
L 438.423918 137.768972 
L 438.681105 137.55749 
L 438.846008 137.240267 
L 439.089487 137.028785 
L 439.383901 136.605821 
L 439.509487 136.288598 
L 440.260515 135.44267 
L 440.645052 135.125447 
L 441.108724 134.913965 
L 441.222593 134.702483 
L 441.633893 134.491001 
L 442.208355 134.068037 
L 443.135109 133.645073 
L 443.146943 133.539332 
L 443.50698 133.222109 
L 443.550594 133.116368 
L 444.65643 132.587664 
L 444.836235 132.376182 
L 445.22081 131.741736 
L 445.254779 131.635995 
L 445.502372 131.424513 
L 445.513223 131.213031 
L 445.84978 131.001549 
L 445.889254 130.895808 
L 446.286557 130.684326 
L 446.785147 129.944139 
L 447.206814 129.521175 
L 447.330251 129.203952 
L 447.61537 128.99247 
L 447.8995 128.675247 
L 448.084248 128.146542 
L 448.974359 127.406355 
L 449.012013 127.300614 
L 449.385257 127.089132 
L 449.556448 126.87765 
L 450.622539 126.137463 
L 450.772201 125.714499 
L 451.003428 125.397276 
L 451.776488 125.185794 
L 451.814211 125.080053 
L 453.22894 124.339866 
L 453.232993 124.234126 
L 454.012277 123.811162 
L 454.082144 123.59968 
L 454.245704 123.388198 
L 454.79477 122.965234 
L 455.05131 122.013565 
L 455.786647 121.696342 
L 456.14987 121.273378 
L 456.275202 121.061896 
L 456.446471 120.850414 
L 456.714467 120.533191 
L 456.832602 120.215968 
L 456.940622 120.004486 
L 456.973111 119.898745 
L 457.475157 119.687263 
L 457.816058 119.158558 
L 458.018092 118.947076 
L 458.139186 118.629853 
L 458.389089 118.418371 
L 458.503359 118.101148 
L 458.648625 117.889666 
L 458.85262 117.572443 
L 459.066376 117.25522 
L 459.079446 117.043738 
L 459.799652 116.832256 
L 460.248651 116.620774 
L 460.354652 116.19781 
L 460.680463 115.669105 
L 461.066509 115.457623 
L 461.574748 115.03466 
L 461.855023 114.823178 
L 462.4967 113.97725 
L 463.440102 113.342804 
L 463.632575 112.814099 
L 463.647726 112.708358 
L 464.107447 112.391135 
L 464.442364 111.650948 
L 464.56451 111.016502 
L 464.68133 110.80502 
L 464.842552 110.487797 
L 466.061903 109.536128 
L 466.590279 109.113164 
L 466.773125 108.584459 
L 467.453545 108.372977 
L 467.564348 108.161495 
L 467.668202 107.738531 
L 467.9324 107.209826 
L 468.016032 106.998344 
L 468.297364 106.786862 
L 468.333318 106.681121 
L 468.759613 106.46964 
L 468.992272 106.258158 
L 469.156214 105.940935 
L 469.501381 105.729453 
L 470.892975 104.989266 
L 471.447477 104.672043 
L 472.089168 104.460561 
L 472.237487 104.249079 
L 472.55205 104.037597 
L 472.608949 103.826115 
L 474.333867 102.557223 
L 474.352448 102.451482 
L 474.544856 102.24 
L 474.696934 101.922777 
L 475.021729 101.711295 
L 475.034812 101.605554 
L 475.604585 101.394072 
L 475.798076 100.971108 
L 476.656095 100.759626 
L 476.843128 100.548144 
L 476.938853 100.230921 
L 477.131134 100.019439 
L 477.754265 99.384993 
L 478.189622 99.06777 
L 478.281502 98.750547 
L 478.557359 98.539065 
L 478.745438 98.327583 
L 479.593434 97.798879 
L 479.659867 97.481656 
L 480.716625 96.318505 
L 480.716721 96.212764 
L 481.051107 96.001282 
L 481.094637 95.895541 
L 482.141547 95.155354 
L 482.268172 94.943872 
L 482.69697 94.73239 
L 482.806545 94.415167 
L 482.939519 94.203685 
L 483.062702 93.886462 
L 483.182504 93.463498 
L 483.301674 93.357757 
L 484.078651 93.146275 
L 484.645202 92.934793 
L 485.057812 92.511829 
L 485.429212 92.300347 
L 485.553624 92.088865 
L 485.60072 91.983124 
L 486.282668 91.665901 
L 486.369602 91.348678 
L 487.088802 91.137196 
L 487.27571 90.819973 
L 487.670617 90.608491 
L 487.932962 90.397009 
L 488.06621 90.185527 
L 488.06621 90.079786 
L 488.440895 89.868304 
L 488.616576 89.656822 
L 488.634418 89.551081 
L 489.425341 89.339599 
L 489.520389 89.128117 
L 490.321244 88.916636 
L 491.731231 88.28219 
L 491.768202 88.176449 
L 492.2244 87.964967 
L 492.327902 87.859226 
L 493.018136 87.647744 
L 493.031075 87.542003 
L 493.716756 87.22478 
L 494.472913 86.696075 
L 494.474896 86.590334 
L 495.183962 86.061629 
L 495.519318 85.850147 
L 496.076283 85.215701 
L 496.169868 85.004219 
L 496.60922 84.792737 
L 497.025032 84.264032 
L 497.754102 84.05255 
L 497.969919 83.735327 
L 498.033545 83.629586 
L 498.931065 83.206622 
L 499.041328 82.889399 
L 499.741057 82.466435 
L 499.750258 82.360694 
L 500.558238 82.149212 
L 500.869886 81.726248 
L 501.252055 81.514766 
L 501.317508 81.409025 
L 501.774281 81.197543 
L 501.805197 81.091802 
L 502.369297 80.668838 
L 502.579993 80.457356 
L 502.733263 80.245874 
L 502.745212 80.034393 
L 504.664603 79.082724 
L 505.147376 78.65976 
L 505.60629 78.448278 
L 505.608413 78.342537 
L 505.94889 78.025314 
L 505.991979 77.919573 
L 506.559655 77.708091 
L 506.782822 77.496609 
L 507.592812 77.179386 
L 508.23581 76.862163 
L 508.718779 76.650681 
L 509.405993 76.121976 
L 509.662076 75.48753 
L 510.202891 75.276048 
L 510.887872 75.064566 
L 510.958595 74.853084 
L 512.50211 74.324379 
L 515.373074 73.689933 
L 516.227913 73.37271 
L 517.449896 73.161228 
L 517.530974 73.055487 
L 519.078156 72.526782 
L 519.499447 72.3153 
L 520.722937 71.680854 
L 521.628693 71.469372 
L 521.788084 71.363632 
L 522.462858 71.15215 
L 523.219732 70.623445 
L 523.742889 70.411963 
L 523.862093 70.306222 
L 525.023065 69.988999 
L 525.23463 69.883258 
L 526.112314 69.671776 
L 526.296736 69.354553 
L 526.604156 69.03733 
L 526.791024 68.825848 
L 526.825961 68.720107 
L 527.3812 68.508625 
L 527.392228 68.402884 
L 528.266098 67.97992 
L 528.640623 67.451215 
L 529.229054 67.133992 
L 529.349701 66.816769 
L 530.44403 66.605287 
L 530.655769 66.499546 
L 531.454528 66.288064 
L 531.570883 66.182323 
L 532.504712 65.8651 
L 532.732215 65.653618 
L 534.870751 65.230654 
L 534.939899 65.124913 
L 536.93774 64.701949 
L 536.961499 64.596208 
L 537.24861 64.490467 
L 538.410175 64.278985 
L 542.527378 62.58713 
L 542.800952 62.164166 
L 543.82969 61.952684 
L 544.130174 61.635461 
L 544.891557 61.212497 
L 544.89697 61.106756 
L 545.142438 60.895274 
L 545.288988 60.683792 
L 545.791336 60.260828 
L 546.124459 59.837864 
L 546.591629 59.626382 
L 547.969489 58.568972 
L 548.013778 58.463231 
L 548.730132 58.251749 
L 549.239175 57.934526 
L 549.842063 57.617303 
L 549.873263 57.511562 
L 550.734728 57.088598 
L 550.807786 56.877116 
L 551.162162 56.665634 
L 551.282412 56.454152 
L 551.30001 56.348411 
L 551.511056 56.136929 
L 551.574604 55.713965 
L 551.768498 55.396742 
L 551.900345 55.18526 
L 552.104007 54.973778 
L 552.128679 54.868037 
L 552.31878 54.762296 
L 553.058191 54.550814 
L 553.55716 54.339332 
L 554.018358 54.022109 
L 554.142698 53.810628 
L 554.158859 53.599146 
L 554.465577 53.387664 
L 554.510917 53.281923 
L 554.972336 53.070441 
L 556.584835 51.90729 
L 557.653012 51.695808 
L 557.952634 51.378585 
L 558.515532 51.167103 
L 558.526617 50.955621 
L 559.158834 50.638398 
L 559.270618 50.426916 
L 559.785993 50.003952 
L 559.84187 49.898211 
L 560.262084 49.686729 
L 560.517239 49.263765 
L 561.589362 48.73506 
L 561.705632 48.523578 
L 561.917562 48.100614 
L 562.094576 47.67765 
L 562.357007 47.360427 
L 562.752396 46.62024 
L 563.089168 46.303017 
L 563.47939 46.091535 
L 563.648816 45.774312 
L 564.633763 44.505421 
L 564.647987 44.293939 
L 564.761927 44.188198 
L 565.256299 43.976716 
L 565.419832 43.659493 
L 565.697762 43.448011 
L 565.701493 43.34227 
L 565.967524 43.130788 
L 566.21694 42.919306 
L 566.567357 42.707824 
L 566.780522 42.496342 
L 567.138425 42.28486 
L 567.138941 42.179119 
L 568.207674 41.121709 
L 568.330808 40.593004 
L 568.403524 40.381522 
L 568.809677 40.17004 
L 568.82604 39.958558 
L 569.284212 39.747076 
L 569.423296 39.535594 
L 569.70635 39.324112 
L 569.828332 39.006889 
L 570.303516 38.795407 
L 570.622224 38.583925 
L 570.876017 38.372443 
L 571.409765 37.843738 
L 571.961753 37.632256 
L 572.416386 36.892069 
L 572.954363 36.680587 
L 573.10952 36.363364 
L 574.196334 35.940401 
L 574.211594 35.83466 
L 574.759353 35.517437 
L 574.860195 35.305955 
L 575.320893 35.094473 
L 575.508557 34.882991 
L 575.961641 34.671509 
L 576.149087 34.460027 
L 576.61857 34.248545 
L 576.795594 33.71984 
L 578.239362 33.085394 
L 578.301248 32.979653 
L 579.091558 32.768171 
L 579.300176 32.556689 
L 579.712223 32.345207 
L 579.982165 32.133725 
L 580.257965 32.027984 
L 581.640077 31.816502 
L 581.714458 31.710761 
L 582.286007 31.499279 
L 582.461678 31.076315 
L 583.106398 30.759092 
L 583.671145 30.54761 
L 584.055636 30.336128 
L 585.686471 29.701682 
L 585.686471 29.595941 
L 586.391298 29.384459 
L 586.502749 29.278718 
L 587.364404 28.961495 
L 588.345458 28.750013 
L 590.060658 27.904085 
L 590.310332 27.481121 
L 590.589009 27.26964 
L 590.606582 27.163899 
L 591.148358 26.952417 
L 591.155238 26.846676 
L 591.823198 26.529453 
L 591.833093 26.423712 
L 592.90363 26.21223 
L 592.904637 26.106489 
L 593.827254 25.895007 
L 593.839263 25.789266 
L 594.291089 25.577784 
L 594.338366 25.472043 
L 594.590813 25.366302 
L 595.588147 25.15482 
L 595.709455 24.837597 
L 595.890573 24.731856 
L 597.399719 24.414633 
L 597.537586 24.203151 
L 597.739105 23.885928 
L 599.813195 23.357223 
L 600.751353 23.04 
L 600.751353 23.04 
" clip-path="url(#p9e06bcc836)" style="fill: none; stroke: #0000ff; stroke-width: 2.5; stroke-linecap: round"/>
   </g>
   <g id="line2d_26">
    <path d="M 105.890299 339.84 
L 105.890299 7.2 
" clip-path="url(#p9e06bcc836)" style="fill: none; stroke-dasharray: 5.55,2.4; stroke-dashoffset: 0; stroke: #808080; stroke-opacity: 0.5; stroke-width: 1.5"/>
   </g>
   <g id="line2d_27">
    <path d="M 286.296431 339.84 
L 286.296431 7.2 
" clip-path="url(#p9e06bcc836)" style="fill: none; stroke-dasharray: 5.55,2.4; stroke-dashoffset: 0; stroke: #808080; stroke-opacity: 0.5; stroke-width: 1.5"/>
   </g>
   <g id="line2d_28">
    <path d="M 384.890299 339.84 
L 384.890299 7.2 
" clip-path="url(#p9e06bcc836)" style="fill: none; stroke-dasharray: 5.55,2.4; stroke-dashoffset: 0; stroke: #808080; stroke-opacity: 0.5; stroke-width: 1.5"/>
   </g>
   <g id="line2d_29">
    <path d="M 447.559539 339.84 
L 447.559539 7.2 
" clip-path="url(#p9e06bcc836)" style="fill: none; stroke-dasharray: 5.55,2.4; stroke-dashoffset: 0; stroke: #808080; stroke-opacity: 0.5; stroke-width: 1.5"/>
   </g>
   <g id="line2d_30">
    <path d="M 504.644257 339.84 
L 504.644257 7.2 
" clip-path="url(#p9e06bcc836)" style="fill: none; stroke-dasharray: 5.55,2.4; stroke-dashoffset: 0; stroke: #808080; stroke-opacity: 0.5; stroke-width: 1.5"/>
   </g>
   <g id="patch_3">
    <path d="M 45.238125 339.84 
L 45.238125 7.2 
" style="fill: none; stroke: #000000; stroke-width: 0.8; stroke-linejoin: miter; stroke-linecap: square"/>
   </g>
   <g id="patch_4">
    <path d="M 603.238125 339.84 
L 603.238125 7.2 
" style="fill: none; stroke: #000000; stroke-width: 0.8; stroke-linejoin: miter; stroke-linecap: square"/>
   </g>
   <g id="patch_5">
    <path d="M 45.238125 339.84 
L 603.238125 339.84 
" style="fill: none; stroke: #000000; stroke-width: 0.8; stroke-linejoin: miter; stroke-linecap: square"/>
   </g>
   <g id="patch_6">
    <path d="M 45.238125 7.2 
L 603.238125 7.2 
" style="fill: none; stroke: #000000; stroke-width: 0.8; stroke-linejoin: miter; stroke-linecap: square"/>
   </g>
   <g id="legend_1">
    <g id="patch_7">
     <path d="M 541.760625 333.84 
L 594.838125 333.84 
Q 597.238125 333.84 597.238125 331.44 
L 597.238125 315.665625 
Q 597.238125 313.265625 594.838125 313.265625 
L 541.760625 313.265625 
Q 539.360625 313.265625 539.360625 315.665625 
L 539.360625 331.44 
Q 539.360625 333.84 541.760625 333.84 
z
" style="fill: #ffffff; opacity: 0.8; stroke: #cccccc; stroke-linejoin: miter"/>
    </g>
    <g id="line2d_31">
     <path d="M 544.160625 322.455 
L 556.160625 322.455 
L 568.160625 322.455 
" style="fill: none; stroke: #0000ff; stroke-width: 2.5; stroke-linecap: round"/>
    </g>
    <g id="text_15">
     <!-- A1 -->
     <g style="fill: #262626" transform="translate(577.760625 326.655) scale(0.12 -0.12)">
      <defs>
       <path id="ArialMT-41" d="M -9 0 
L 1750 4581 
L 2403 4581 
L 4278 0 
L 3588 0 
L 3053 1388 
L 1138 1388 
L 634 0 
L -9 0 
z
M 1313 1881 
L 2866 1881 
L 2388 3150 
Q 2169 3728 2063 4100 
Q 1975 3659 1816 3225 
L 1313 1881 
z
" transform="scale(0.015625)"/>
      </defs>
      <use xlink:href="#ArialMT-41"/>
      <use xlink:href="#ArialMT-31" transform="translate(66.699219 0)"/>
     </g>
    </g>
   </g>
  </g>
 </g>
 <defs>
  <clipPath id="p9e06bcc836">
   <rect x="45.238125" y="7.2" width="558" height="332.64"/>
  </clipPath>
 </defs>
</svg>
